<?xml version="1.0" standalone="no"?>
<!DOCTYPE svg PUBLIC "-//W3C//DTD SVG 20010904//EN"
 "http://www.w3.org/TR/2001/REC-SVG-20010904/DTD/svg10.dtd">
<svg version="1.0" xmlns="http://www.w3.org/2000/svg"
 width="672.000000pt" height="672.000000pt" viewBox="0 0 672.000000 672.000000"
 preserveAspectRatio="xMidYMid meet">

<g transform="translate(0.000000,672.000000) scale(0.100000,-0.100000)"
fill="#000000" stroke="none">
<path d="M3156 6713 c-4 -5 -51 -11 -104 -15 -166 -13 -216 -19 -237 -28 -11
-5 -38 -11 -60 -14 -22 -3 -65 -10 -95 -16 -30 -6 -74 -14 -97 -17 -24 -3 -43
-9 -43 -14 0 -5 -15 -9 -34 -9 -19 0 -38 -4 -41 -10 -3 -5 -19 -10 -35 -10
-16 0 -32 -4 -35 -10 -3 -5 -17 -10 -30 -10 -13 0 -27 -4 -30 -10 -3 -5 -17
-10 -31 -10 -13 0 -24 -4 -24 -10 0 -5 -13 -10 -30 -10 -16 0 -30 -4 -30 -10
0 -5 -9 -10 -19 -10 -11 0 -23 -4 -26 -10 -3 -5 -17 -10 -31 -10 -13 0 -24 -4
-24 -10 0 -5 -7 -10 -15 -10 -9 0 -35 -9 -57 -20 -23 -11 -48 -20 -55 -20 -7
0 -13 -4 -13 -10 0 -5 -6 -10 -14 -10 -16 0 -140 -62 -144 -72 -2 -5 -12 -8
-23 -8 -10 0 -19 -4 -19 -10 0 -5 -9 -10 -19 -10 -11 0 -21 -3 -23 -7 -4 -10
-57 -42 -80 -50 -10 -3 -18 -9 -18 -14 0 -5 -6 -9 -13 -9 -7 0 -22 -8 -33 -17
-10 -10 -31 -24 -46 -32 -16 -8 -28 -18 -28 -23 0 -4 -6 -8 -12 -8 -7 0 -29
-14 -48 -30 -19 -16 -40 -30 -45 -30 -6 0 -17 -9 -25 -20 -8 -11 -20 -20 -26
-20 -6 0 -24 -12 -40 -28 -16 -15 -45 -38 -64 -52 -19 -13 -51 -40 -70 -60
-19 -19 -51 -47 -70 -61 -50 -38 -211 -198 -240 -239 -14 -19 -46 -57 -72 -83
-27 -27 -48 -53 -48 -58 0 -5 -16 -25 -35 -45 -19 -19 -35 -38 -35 -43 0 -4
-11 -21 -25 -37 -14 -16 -25 -33 -25 -38 0 -5 -8 -16 -18 -25 -9 -9 -23 -28
-31 -43 -8 -16 -18 -28 -23 -28 -4 0 -8 -7 -8 -15 0 -9 -9 -25 -20 -37 -11
-12 -20 -28 -20 -35 0 -7 -4 -13 -10 -13 -5 0 -10 -6 -10 -13 0 -7 -9 -23 -20
-35 -11 -12 -20 -28 -20 -36 0 -8 -3 -16 -8 -18 -11 -5 -132 -246 -132 -263 0
-8 -4 -15 -10 -15 -5 0 -10 -9 -10 -20 0 -11 -4 -20 -10 -20 -5 0 -10 -11 -10
-24 0 -14 -5 -28 -10 -31 -6 -3 -10 -15 -10 -26 0 -10 -4 -19 -8 -19 -5 0 -15
-23 -22 -51 -8 -27 -18 -52 -22 -55 -4 -3 -8 -16 -8 -29 0 -13 -4 -27 -10 -30
-5 -3 -10 -17 -10 -30 0 -13 -4 -27 -10 -30 -5 -3 -10 -19 -10 -35 0 -16 -4
-32 -10 -35 -5 -3 -10 -19 -10 -35 0 -16 -4 -31 -9 -34 -5 -3 -12 -24 -15 -46
-3 -22 -9 -58 -12 -80 -3 -22 -10 -43 -15 -46 -5 -3 -9 -27 -9 -53 0 -26 -4
-51 -9 -56 -10 -10 -18 -76 -27 -205 -2 -41 -9 -84 -15 -95 -21 -42 -1 -533
31 -755 6 -41 13 -97 16 -125 3 -27 10 -54 15 -60 5 -5 9 -26 9 -46 0 -21 5
-41 10 -44 6 -3 10 -24 10 -46 0 -21 4 -39 9 -39 5 0 12 -16 15 -35 3 -19 9
-51 12 -70 3 -19 10 -38 15 -41 5 -3 9 -16 9 -29 0 -13 5 -27 10 -30 6 -3 10
-17 10 -31 0 -13 5 -24 10 -24 6 0 10 -13 10 -30 0 -16 4 -30 8 -30 5 0 15
-22 22 -50 7 -27 17 -50 22 -50 4 0 8 -7 8 -15 0 -9 9 -35 20 -57 11 -23 20
-48 20 -55 0 -7 5 -13 10 -13 6 0 10 -9 10 -20 0 -11 5 -20 10 -20 6 0 10 -9
10 -20 0 -11 5 -20 10 -20 6 0 10 -9 10 -20 0 -11 5 -20 10 -20 6 0 10 -9 10
-20 0 -11 5 -20 10 -20 6 0 10 -9 10 -20 0 -11 5 -20 10 -20 6 0 10 -9 10 -20
0 -11 4 -20 9 -20 5 0 11 -8 14 -17 6 -18 37 -73 47 -83 3 -3 11 -17 19 -32 8
-16 18 -28 23 -28 4 0 8 -6 8 -13 0 -7 8 -22 18 -33 9 -10 23 -31 31 -46 8
-16 18 -28 23 -28 4 0 8 -6 8 -13 0 -7 8 -22 18 -33 10 -10 28 -35 42 -54 13
-19 31 -42 40 -50 9 -8 27 -31 40 -50 13 -19 36 -46 50 -60 14 -14 38 -43 55
-65 35 -48 186 -197 235 -234 19 -14 51 -42 70 -61 19 -20 51 -47 70 -60 19
-14 48 -37 64 -52 16 -16 33 -28 38 -28 5 0 20 -11 34 -25 14 -14 29 -25 34
-25 5 0 20 -11 34 -25 14 -14 31 -25 38 -25 8 0 20 -9 28 -20 8 -11 21 -20 30
-20 9 0 22 -9 30 -20 8 -11 22 -20 31 -20 10 0 19 -3 21 -7 4 -10 57 -42 81
-50 9 -3 17 -9 17 -14 0 -5 9 -9 19 -9 11 0 21 -3 23 -8 4 -10 170 -92 186
-92 6 0 12 -4 12 -10 0 -5 9 -10 20 -10 11 0 20 -4 20 -8 0 -5 23 -15 50 -22
28 -7 50 -16 50 -20 0 -4 23 -13 50 -20 28 -7 50 -17 50 -22 0 -4 14 -8 30 -8
17 0 30 -4 30 -10 0 -5 11 -10 24 -10 14 0 28 -4 31 -10 3 -5 17 -10 30 -10
13 0 27 -4 30 -10 3 -5 19 -10 35 -10 16 0 32 -4 35 -10 3 -5 19 -10 34 -10
15 0 31 -4 36 -9 6 -5 28 -11 50 -15 98 -13 121 -18 140 -26 11 -5 40 -11 65
-15 25 -3 74 -10 110 -16 185 -29 636 -49 675 -30 11 6 63 13 115 15 126 6
201 15 225 26 11 5 40 11 65 14 98 12 135 18 145 27 5 5 26 9 46 9 21 0 41 4
44 10 3 5 19 10 35 10 16 0 32 5 35 10 3 6 22 10 41 10 19 0 34 5 34 10 0 6
14 10 30 10 17 0 30 5 30 10 0 6 11 10 24 10 14 0 27 4 30 8 3 4 28 14 55 22
28 7 51 17 51 22 0 4 9 8 20 8 11 0 28 4 38 9 42 23 113 51 127 51 8 0 15 5
15 10 0 6 9 10 20 10 11 0 20 5 20 10 0 6 9 10 20 10 11 0 20 5 20 10 0 6 9
10 20 10 11 0 20 5 20 10 0 6 9 10 20 10 11 0 20 5 20 10 0 6 9 10 19 10 11 0
21 3 23 8 4 9 57 41 81 49 9 3 17 9 17 14 0 5 9 9 20 9 11 0 20 4 20 8 0 5 12
15 28 23 15 8 36 22 46 31 11 10 26 18 33 18 7 0 13 4 13 8 0 5 12 15 28 23
15 8 34 22 43 31 9 10 21 18 26 18 6 0 24 14 41 30 18 17 36 30 40 30 5 0 22
12 38 28 16 15 40 35 54 45 88 61 390 362 450 448 13 19 31 41 40 49 9 8 27
31 40 50 14 19 32 44 42 54 10 11 18 25 18 31 0 6 9 17 20 25 11 8 20 19 20
25 0 6 8 20 18 31 9 10 23 31 31 47 8 15 18 27 23 27 4 0 8 7 8 15 0 9 9 25
20 37 11 12 20 28 20 35 0 7 5 13 10 13 6 0 10 7 10 15 0 9 9 25 20 37 11 12
20 28 20 35 0 7 5 13 10 13 6 0 10 9 10 20 0 11 5 20 10 20 6 0 10 9 10 20 0
11 5 20 10 20 6 0 10 9 10 20 0 11 5 20 10 20 6 0 10 9 10 20 0 11 5 20 10 20
6 0 10 7 10 15 0 15 4 25 28 72 7 13 12 30 12 38 0 8 5 15 10 15 6 0 10 7 10
15 0 8 4 23 9 33 5 9 14 31 21 47 7 17 16 38 21 47 5 10 9 27 9 38 0 11 5 20
10 20 6 0 10 14 10 30 0 17 5 30 10 30 6 0 10 13 10 29 0 17 5 33 10 36 6 3
10 19 10 35 0 16 5 32 10 35 6 3 10 19 10 35 0 16 4 31 9 34 5 3 11 23 15 43
3 21 8 56 11 78 4 22 10 49 15 60 5 11 12 40 15 65 3 25 10 77 16 115 6 39 12
111 15 160 2 50 9 99 15 110 17 34 -2 440 -31 655 -5 41 -12 98 -16 125 -3 28
-10 54 -15 59 -5 6 -9 29 -9 52 0 24 -4 46 -10 49 -5 3 -10 24 -10 45 0 21 -4
42 -10 45 -5 3 -10 19 -10 35 0 16 -4 32 -10 35 -5 3 -10 17 -10 31 0 13 -4
32 -9 42 -5 9 -19 51 -32 92 -12 41 -26 79 -31 84 -4 6 -8 20 -8 33 0 13 -4
23 -8 23 -5 0 -15 22 -22 50 -7 27 -17 50 -22 50 -4 0 -8 6 -8 13 0 12 -29 80
-50 119 -6 10 -10 24 -10 32 0 8 -3 16 -7 18 -7 3 -45 72 -87 155 -6 13 -14
23 -18 23 -5 0 -8 9 -8 20 0 11 -4 20 -10 20 -5 0 -10 6 -10 13 0 7 -8 22 -17
33 -10 11 -24 30 -30 42 -7 12 -19 32 -25 44 -7 12 -21 31 -30 42 -10 11 -18
25 -18 31 0 6 -9 17 -20 25 -11 8 -20 19 -20 25 0 6 -8 20 -18 31 -10 10 -28
35 -42 54 -13 19 -31 42 -40 50 -9 8 -27 30 -39 49 -63 89 -353 379 -443 442
-18 13 -40 30 -48 39 -8 9 -31 27 -50 40 -19 14 -44 32 -54 42 -11 10 -23 18
-28 18 -4 0 -22 14 -40 30 -17 17 -37 30 -44 30 -8 0 -14 4 -14 8 0 5 -12 15
-27 23 -16 8 -37 22 -47 32 -11 9 -26 17 -33 17 -7 0 -13 3 -13 8 0 4 -10 12
-23 17 -46 22 -112 60 -115 68 -2 4 -12 7 -23 7 -10 0 -19 5 -19 10 0 6 -9 10
-20 10 -11 0 -20 5 -20 10 0 6 -9 10 -20 10 -11 0 -20 5 -20 10 0 6 -9 10 -20
10 -11 0 -20 5 -20 10 0 6 -9 10 -20 10 -11 0 -20 5 -20 10 0 6 -7 10 -15 10
-8 0 -24 5 -35 10 -11 6 -29 15 -40 20 -11 6 -27 10 -35 10 -8 0 -15 5 -15 10
0 6 -9 10 -20 10 -20 0 -29 4 -77 28 -13 7 -32 12 -43 12 -11 0 -20 5 -20 10
0 6 -13 10 -30 10 -16 0 -30 5 -30 10 0 6 -13 10 -30 10 -16 0 -30 4 -30 9 0
5 -16 12 -35 15 -19 3 -51 9 -70 12 -19 3 -35 10 -35 14 0 4 -19 10 -42 13
-24 3 -68 11 -98 17 -30 6 -73 13 -95 16 -22 3 -49 9 -60 14 -23 10 -97 19
-235 26 -52 3 -99 10 -104 15 -12 11 -399 12 -410 2z m594 -92 c85 -14 194
-30 250 -37 25 -3 49 -10 55 -15 5 -5 24 -9 41 -9 18 0 35 -4 38 -9 6 -8 18
-11 109 -27 20 -3 37 -10 37 -15 0 -5 13 -9 29 -9 17 0 33 -4 36 -10 3 -5 17
-10 30 -10 13 0 27 -4 30 -10 3 -5 17 -10 30 -10 13 0 27 -4 30 -10 3 -5 17
-10 31 -10 13 0 24 -4 24 -8 0 -5 23 -15 50 -22 28 -7 50 -17 50 -22 0 -4 7
-8 15 -8 8 0 23 -4 33 -10 39 -21 107 -50 119 -50 7 0 13 -4 13 -10 0 -5 9
-10 20 -10 11 0 20 -4 20 -10 0 -5 9 -10 20 -10 11 0 20 -4 20 -10 0 -5 9 -10
20 -10 11 0 20 -4 20 -9 0 -5 8 -11 18 -14 23 -8 76 -40 80 -49 2 -5 12 -8 23
-8 10 0 19 -4 19 -8 0 -5 12 -15 28 -23 15 -8 36 -22 46 -31 11 -10 26 -18 33
-18 7 0 13 -4 13 -10 0 -5 6 -10 13 -10 6 0 28 -14 47 -30 19 -16 39 -30 44
-30 5 0 16 -8 25 -18 9 -10 32 -29 51 -42 19 -13 42 -31 50 -40 8 -8 35 -31
60 -50 60 -46 359 -345 390 -390 13 -19 37 -47 52 -62 15 -14 28 -30 28 -36 0
-5 14 -23 30 -40 17 -18 30 -36 30 -40 0 -5 14 -23 30 -40 17 -18 30 -36 30
-40 0 -5 8 -17 18 -28 22 -25 52 -74 59 -96 3 -10 9 -18 14 -18 5 0 9 -6 9
-13 0 -7 9 -23 20 -35 11 -12 20 -28 20 -36 0 -8 4 -16 8 -18 12 -4 132 -245
132 -264 0 -7 5 -14 10 -14 6 0 10 -9 10 -20 0 -11 4 -20 8 -20 5 0 15 -22 22
-50 7 -27 17 -50 22 -50 4 0 8 -9 8 -19 0 -11 5 -23 10 -26 6 -3 10 -17 10
-30 0 -13 5 -27 10 -30 6 -3 10 -17 10 -30 0 -13 5 -27 10 -30 6 -3 10 -17 10
-30 0 -13 5 -27 10 -30 6 -3 10 -19 10 -35 0 -16 5 -32 10 -35 6 -3 10 -19 10
-35 0 -16 4 -31 9 -34 5 -3 11 -23 14 -43 11 -72 18 -108 27 -128 5 -11 11
-40 14 -65 3 -25 10 -76 16 -115 34 -228 44 -640 21 -835 -6 -52 -14 -122 -17
-155 -3 -33 -10 -64 -15 -69 -5 -6 -9 -32 -9 -58 0 -26 -4 -48 -9 -48 -5 0
-11 -19 -14 -42 -3 -24 -10 -63 -17 -88 -6 -25 -14 -60 -17 -77 -3 -18 -9 -33
-14 -33 -5 0 -9 -13 -9 -29 0 -17 -4 -33 -10 -36 -5 -3 -10 -17 -10 -31 0 -13
-4 -24 -10 -24 -5 0 -10 -13 -10 -30 0 -16 -4 -30 -10 -30 -5 0 -10 -9 -10
-20 0 -11 -4 -29 -10 -40 -5 -11 -14 -29 -20 -40 -5 -11 -10 -29 -10 -40 0
-11 -4 -20 -10 -20 -5 0 -10 -9 -10 -20 0 -11 -4 -20 -10 -20 -5 0 -10 -7 -10
-15 0 -8 -4 -23 -9 -33 -5 -9 -33 -65 -62 -125 -29 -59 -57 -107 -61 -107 -4
0 -8 -9 -8 -20 0 -11 -4 -20 -10 -20 -5 0 -10 -9 -10 -20 0 -11 -4 -20 -10
-20 -5 0 -10 -6 -10 -13 0 -7 -8 -22 -17 -33 -10 -10 -24 -31 -32 -46 -8 -16
-18 -28 -23 -28 -4 0 -8 -8 -8 -18 0 -10 -9 -24 -20 -32 -11 -8 -20 -19 -20
-25 0 -5 -14 -26 -30 -45 -16 -19 -30 -38 -30 -43 0 -4 -13 -21 -30 -39 -16
-17 -30 -35 -30 -40 0 -5 -11 -20 -24 -33 -14 -14 -37 -41 -53 -62 -36 -49
-337 -350 -386 -386 -21 -16 -48 -39 -62 -53 -13 -13 -28 -24 -33 -24 -5 0
-23 -14 -40 -30 -18 -17 -35 -30 -39 -30 -5 0 -24 -14 -43 -30 -19 -16 -39
-30 -43 -30 -4 0 -17 -9 -29 -20 -12 -11 -28 -20 -35 -20 -7 0 -13 -4 -13 -8
0 -5 -12 -15 -27 -23 -16 -8 -37 -22 -47 -31 -11 -10 -26 -18 -33 -18 -7 0
-13 -4 -13 -10 0 -5 -9 -10 -20 -10 -11 0 -20 -4 -20 -10 0 -5 -9 -10 -20 -10
-11 0 -20 -3 -20 -7 0 -5 -10 -13 -23 -19 -12 -6 -60 -30 -107 -54 -47 -23
-93 -46 -102 -51 -10 -5 -25 -9 -33 -9 -8 0 -15 -4 -15 -10 0 -5 -9 -10 -20
-10 -11 0 -20 -4 -20 -10 0 -5 -11 -10 -24 -10 -14 0 -28 -4 -31 -10 -3 -5
-15 -10 -26 -10 -10 0 -19 -4 -19 -10 0 -5 -11 -10 -24 -10 -14 0 -28 -4 -31
-10 -3 -5 -19 -10 -36 -10 -16 0 -29 -4 -29 -10 0 -5 -13 -10 -30 -10 -16 0
-30 -4 -30 -10 0 -5 -13 -10 -29 -10 -17 0 -33 -5 -36 -10 -3 -6 -19 -10 -35
-10 -16 0 -32 -4 -35 -10 -3 -5 -21 -10 -39 -10 -17 0 -36 -4 -42 -9 -5 -5
-27 -11 -49 -14 -22 -4 -65 -11 -95 -17 -211 -42 -336 -53 -625 -53 -143 0
-303 5 -355 12 -52 6 -120 14 -150 17 -30 3 -59 10 -65 15 -5 5 -30 9 -56 9
-26 0 -50 4 -53 9 -3 5 -24 12 -46 15 -22 3 -58 9 -80 12 -22 3 -43 10 -46 15
-3 5 -16 9 -30 9 -13 0 -32 4 -42 9 -9 5 -62 23 -117 40 -96 31 -130 43 -167
62 -10 5 -25 9 -33 9 -8 0 -15 5 -15 10 0 6 -7 10 -15 10 -9 0 -35 9 -57 20
-23 11 -48 20 -55 20 -7 0 -13 5 -13 10 0 6 -9 10 -20 10 -11 0 -20 5 -20 10
0 6 -9 10 -20 10 -11 0 -20 5 -20 10 0 6 -9 10 -19 10 -11 0 -21 3 -23 8 -3 6
-55 36 -115 66 -13 6 -23 14 -23 19 0 4 -9 7 -20 7 -11 0 -20 5 -20 10 0 6 -6
10 -12 10 -7 0 -29 14 -48 30 -19 16 -39 30 -43 30 -4 0 -17 9 -29 20 -12 11
-28 20 -35 20 -7 0 -13 4 -13 8 0 5 -12 15 -27 23 -15 8 -41 26 -57 42 -16 15
-33 27 -39 27 -5 0 -17 8 -26 18 -9 10 -32 29 -51 42 -46 31 -429 414 -460
460 -13 19 -32 42 -42 51 -10 9 -18 21 -18 26 0 6 -12 23 -28 39 -15 16 -33
42 -41 57 -8 15 -18 27 -23 27 -4 0 -8 6 -8 13 0 6 -11 25 -25 41 -13 16 -27
37 -30 47 -4 11 -11 19 -16 19 -5 0 -9 6 -9 13 0 7 -9 23 -20 35 -11 12 -20
28 -20 37 0 8 -4 15 -9 15 -5 0 -11 8 -14 18 -8 23 -40 76 -49 80 -5 2 -8 12
-8 23 0 10 -4 19 -10 19 -5 0 -10 9 -10 20 0 11 -4 20 -10 20 -5 0 -10 9 -10
20 0 11 -4 20 -10 20 -5 0 -10 9 -10 20 0 11 -4 20 -10 20 -5 0 -10 6 -10 13
0 7 -9 32 -20 55 -11 22 -20 48 -20 57 0 8 -4 15 -10 15 -5 0 -10 9 -10 19 0
11 -4 23 -10 26 -5 3 -10 17 -10 31 0 13 -4 24 -10 24 -5 0 -10 10 -10 23 0
13 -4 27 -8 32 -5 6 -19 44 -31 85 -13 41 -27 83 -32 92 -5 10 -9 29 -9 42 0
14 -5 28 -10 31 -6 3 -10 21 -10 40 0 19 -4 36 -9 39 -8 6 -14 32 -27 129 -3
23 -9 51 -14 62 -5 11 -12 45 -15 75 -3 30 -10 98 -17 150 -14 118 -14 656 0
765 6 44 16 107 21 140 6 33 13 78 16 100 4 22 10 49 15 60 5 11 11 36 15 55
3 19 8 50 12 68 3 18 9 35 14 38 5 3 9 18 9 34 0 16 4 32 10 35 5 3 10 19 10
36 0 16 5 29 10 29 6 0 10 14 10 30 0 17 5 30 10 30 6 0 10 14 10 30 0 17 5
30 10 30 6 0 10 11 10 24 0 14 4 28 10 31 5 3 10 15 10 26 0 10 5 19 10 19 6
0 10 7 10 15 0 9 9 35 20 57 11 23 20 48 20 55 0 7 5 13 10 13 6 0 10 9 10 20
0 11 5 20 10 20 6 0 10 9 10 20 0 11 5 20 10 20 6 0 10 9 10 20 0 11 5 20 10
20 6 0 10 9 10 20 0 11 5 20 10 20 6 0 10 9 10 20 0 11 5 20 10 20 6 0 10 9
10 20 0 11 4 20 9 20 5 0 11 8 14 18 6 17 37 72 47 82 3 3 11 17 19 33 8 15
18 27 23 27 4 0 8 9 8 20 0 11 4 20 8 20 5 0 15 12 23 28 8 15 24 37 36 50 13
13 23 27 23 31 0 5 14 23 30 41 17 18 30 36 30 41 0 4 10 18 23 31 12 13 33
39 47 58 13 19 40 51 60 70 19 20 60 65 90 100 66 79 62 75 130 130 30 25 75
65 100 90 25 25 61 56 80 70 19 13 42 31 50 40 8 9 31 27 50 40 19 14 44 32
54 42 11 10 25 18 31 18 6 0 17 9 25 20 8 11 22 20 32 20 10 0 18 4 18 8 0 5
12 15 28 23 15 8 36 22 46 32 11 9 26 17 33 17 7 0 13 4 13 9 0 5 8 11 18 14
23 8 76 40 80 50 2 4 12 7 23 7 10 0 19 5 19 10 0 6 9 10 20 10 11 0 20 5 20
10 0 6 9 10 20 10 11 0 20 5 20 10 0 6 9 10 20 10 11 0 20 5 20 10 0 6 9 10
20 10 11 0 20 5 20 10 0 6 7 10 15 10 8 0 24 5 35 10 11 6 29 15 40 20 11 6
27 10 35 10 8 0 15 5 15 10 0 6 9 10 19 10 11 0 23 5 26 10 3 6 17 10 31 10
13 0 24 3 24 8 0 4 35 18 78 30 42 13 85 28 94 33 10 5 29 9 43 9 14 0 25 4
25 9 0 5 16 12 35 15 19 3 51 9 70 12 19 3 38 10 41 15 3 5 20 9 38 9 17 0 36
4 41 9 6 5 30 12 55 15 25 3 74 10 110 15 36 6 100 15 143 20 44 5 82 12 85
16 10 10 621 -2 692 -14z"/>
<path d="M3150 6578 c-208 -10 -291 -17 -315 -28 -11 -5 -38 -11 -60 -14 -87
-11 -121 -18 -140 -26 -11 -5 -36 -11 -55 -15 -19 -3 -50 -8 -67 -12 -18 -3
-33 -9 -33 -14 0 -5 -11 -9 -25 -9 -14 0 -33 -4 -43 -9 -9 -5 -48 -18 -87 -30
-68 -22 -102 -34 -137 -52 -10 -5 -25 -9 -33 -9 -8 0 -15 -4 -15 -10 0 -5 -9
-10 -20 -10 -11 0 -35 -9 -55 -20 -20 -11 -42 -20 -50 -20 -8 0 -15 -4 -15
-10 0 -5 -9 -10 -20 -10 -11 0 -20 -4 -20 -10 0 -5 -9 -10 -20 -10 -11 0 -20
-4 -20 -10 0 -5 -9 -10 -20 -10 -11 0 -20 -4 -20 -10 0 -5 -9 -10 -20 -10 -11
0 -20 -4 -20 -10 0 -5 -9 -10 -20 -10 -11 0 -20 -4 -20 -9 0 -5 -8 -11 -17
-14 -18 -6 -73 -37 -83 -47 -3 -3 -17 -11 -32 -19 -16 -8 -28 -18 -28 -23 0
-4 -9 -8 -20 -8 -11 0 -20 -4 -20 -8 0 -5 -12 -15 -27 -23 -16 -8 -35 -22 -44
-31 -9 -10 -20 -18 -25 -18 -5 0 -25 -14 -44 -30 -19 -16 -39 -30 -44 -30 -5
0 -16 -8 -25 -18 -9 -10 -32 -29 -51 -42 -19 -13 -46 -36 -60 -50 -14 -14 -41
-37 -60 -50 -45 -32 -248 -235 -280 -280 -13 -19 -36 -46 -50 -60 -14 -14 -37
-41 -50 -60 -14 -19 -37 -48 -52 -64 -16 -16 -28 -33 -28 -38 0 -4 -13 -22
-30 -40 -16 -17 -30 -35 -30 -40 0 -5 -9 -18 -20 -30 -11 -12 -20 -28 -20 -35
0 -7 -4 -13 -9 -13 -5 0 -14 -13 -21 -30 -7 -16 -16 -30 -21 -30 -5 0 -9 -9
-9 -20 0 -11 -4 -20 -9 -20 -5 0 -14 -13 -21 -30 -7 -16 -16 -30 -21 -30 -5 0
-9 -9 -9 -20 0 -11 -4 -20 -10 -20 -5 0 -10 -9 -10 -19 0 -11 -3 -21 -7 -23
-11 -4 -73 -128 -73 -144 0 -8 -4 -14 -10 -14 -5 0 -10 -9 -10 -20 0 -11 -4
-20 -10 -20 -5 0 -10 -9 -10 -20 0 -11 -4 -20 -8 -20 -5 0 -15 -22 -22 -50 -7
-27 -17 -50 -22 -50 -4 0 -8 -10 -8 -23 0 -13 -4 -27 -8 -32 -4 -6 -14 -28
-21 -50 -7 -22 -16 -49 -21 -60 -4 -11 -13 -40 -20 -65 -6 -25 -16 -53 -21
-62 -5 -10 -9 -29 -9 -42 0 -14 -4 -27 -9 -30 -8 -6 -12 -24 -27 -128 -3 -24
-10 -47 -15 -52 -5 -6 -9 -31 -9 -56 0 -25 -4 -50 -9 -56 -10 -10 -16 -62 -31
-293 -11 -160 0 -512 20 -661 5 -41 12 -100 16 -130 3 -30 10 -59 15 -65 5 -5
9 -26 9 -46 0 -21 4 -41 10 -44 5 -3 10 -24 10 -46 0 -21 5 -39 10 -39 6 0 10
-15 10 -34 0 -19 5 -38 10 -41 6 -3 10 -19 10 -35 0 -16 5 -32 10 -35 6 -3 10
-17 10 -30 0 -13 5 -27 10 -30 6 -3 10 -17 10 -30 0 -13 5 -27 10 -30 6 -3 10
-17 10 -31 0 -13 5 -24 10 -24 6 0 10 -13 10 -30 0 -16 5 -30 10 -30 6 0 10
-9 10 -19 0 -11 5 -23 10 -26 6 -3 10 -17 10 -31 0 -13 5 -24 10 -24 6 0 10
-9 10 -20 0 -11 5 -20 10 -20 6 0 10 -9 10 -20 0 -11 5 -20 10 -20 6 0 10 -9
10 -20 0 -11 5 -20 10 -20 6 0 10 -9 10 -20 0 -11 5 -20 10 -20 6 0 10 -9 10
-20 0 -11 5 -20 10 -20 6 0 10 -9 10 -20 0 -11 5 -20 10 -20 6 0 10 -9 10 -19
0 -11 3 -21 8 -23 9 -4 41 -57 49 -80 3 -10 9 -18 14 -18 5 0 9 -9 9 -20 0
-11 4 -20 8 -20 5 0 15 -12 23 -28 8 -15 22 -36 32 -46 9 -11 17 -26 17 -33 0
-7 4 -13 8 -13 5 0 15 -12 23 -28 8 -15 22 -34 31 -43 10 -9 18 -21 18 -26 0
-6 12 -23 28 -39 15 -16 38 -45 52 -64 14 -19 39 -50 57 -68 18 -18 33 -37 33
-42 0 -12 256 -269 305 -305 22 -17 52 -42 67 -57 14 -16 30 -28 35 -28 5 0
29 -18 53 -40 24 -22 48 -40 53 -40 6 0 17 -8 26 -18 9 -9 28 -23 44 -31 15
-8 27 -18 27 -23 0 -4 6 -8 13 -8 7 0 22 -8 33 -17 10 -10 31 -24 46 -32 16
-8 28 -18 28 -23 0 -4 7 -8 15 -8 9 0 25 -9 37 -20 12 -11 28 -20 35 -20 7 0
13 -4 13 -10 0 -5 9 -10 19 -10 11 0 21 -3 23 -8 4 -10 170 -92 186 -92 6 0
12 -4 12 -10 0 -5 9 -10 20 -10 11 0 20 -4 20 -10 0 -5 7 -10 15 -10 15 0 25
-4 72 -28 13 -7 30 -12 38 -12 8 0 15 -4 15 -8 0 -5 23 -15 51 -22 27 -8 52
-18 55 -22 3 -4 14 -8 25 -8 10 0 27 -4 37 -9 9 -5 37 -14 62 -21 25 -7 53
-16 62 -21 10 -5 29 -9 42 -9 14 0 28 -4 31 -10 3 -5 23 -10 44 -10 20 0 41
-4 47 -9 5 -5 29 -12 54 -15 49 -7 140 -21 240 -37 174 -27 694 -27 860 1 89
15 176 28 230 36 25 3 49 10 54 15 6 5 27 9 47 9 21 0 41 5 44 10 3 6 19 10
35 10 16 0 32 4 35 10 3 5 19 10 35 10 16 0 32 5 35 10 3 6 17 10 30 10 13 0
27 5 30 10 3 6 17 10 30 10 13 0 27 5 30 10 3 6 17 10 31 10 13 0 24 4 24 8 0
5 23 15 50 22 28 7 50 17 50 22 0 4 7 8 15 8 8 0 24 4 35 10 11 5 29 14 40 20
11 6 27 10 35 10 8 0 15 5 15 10 0 6 9 10 20 10 11 0 20 5 20 10 0 6 9 10 20
10 11 0 20 5 20 10 0 6 9 10 20 10 11 0 20 5 20 10 0 6 9 10 20 10 11 0 20 5
20 10 0 6 9 10 20 10 11 0 20 4 20 9 0 5 14 14 30 21 17 7 30 16 30 21 0 5 9
9 20 9 11 0 20 4 20 9 0 5 14 14 30 21 17 7 30 16 30 21 0 5 6 9 13 9 7 0 23
9 35 20 12 11 25 20 29 20 4 0 24 14 43 30 19 16 40 30 45 30 6 0 17 9 25 20
8 11 19 20 25 20 6 0 31 18 55 40 24 22 48 40 52 40 11 0 90 74 237 221 140
140 185 188 221 239 13 19 31 42 40 50 9 8 27 31 40 50 14 19 32 44 42 54 10
11 18 26 18 33 0 7 4 13 8 13 5 0 15 12 23 28 8 15 22 36 31 46 10 11 18 24
18 28 0 5 9 18 20 30 11 12 20 28 20 35 0 7 5 13 10 13 6 0 10 9 10 19 0 11 3
21 8 23 9 4 41 57 49 81 3 9 9 17 14 17 5 0 9 9 9 20 0 11 5 20 10 20 6 0 10
9 10 20 0 11 5 20 10 20 6 0 10 9 10 20 0 11 5 20 10 20 6 0 10 9 10 20 0 11
5 20 10 20 6 0 10 6 10 13 0 7 9 32 20 55 11 22 20 48 20 57 0 8 4 15 8 15 5
0 15 23 22 50 7 27 17 50 22 50 4 0 8 14 8 30 0 17 5 30 10 30 6 0 10 14 10
30 0 17 5 30 10 30 6 0 10 14 10 30 0 17 5 30 10 30 6 0 10 15 10 34 0 19 5
38 10 41 6 3 10 19 10 35 0 16 4 31 9 34 8 6 12 24 27 129 3 23 10 46 15 52 5
5 9 30 9 55 0 25 4 50 9 56 21 21 39 442 29 649 -11 207 -25 331 -58 495 -6
30 -14 74 -17 98 -3 23 -9 42 -14 42 -5 0 -9 15 -9 34 0 19 -4 38 -10 41 -5 3
-10 19 -10 35 0 16 -4 32 -10 35 -5 3 -10 17 -10 30 0 13 -4 27 -10 30 -5 3
-10 17 -10 30 0 13 -4 27 -10 30 -5 3 -10 17 -10 30 0 13 -4 27 -10 30 -5 3
-10 17 -10 31 0 13 -4 24 -8 24 -5 0 -15 22 -22 50 -7 27 -17 50 -22 50 -4 0
-8 6 -8 14 0 8 -9 31 -19 53 -10 21 -35 72 -55 113 -43 89 -68 134 -78 138 -5
2 -8 12 -8 23 0 10 -4 19 -9 19 -5 0 -11 8 -14 18 -6 17 -37 72 -47 82 -3 3
-11 17 -19 33 -8 15 -18 27 -23 27 -4 0 -8 6 -8 13 0 6 -11 25 -25 41 -14 16
-25 33 -25 37 0 4 -11 19 -25 33 -14 14 -25 29 -25 34 0 5 -18 28 -40 51 -22
22 -40 45 -40 49 0 27 -368 397 -460 462 -19 14 -48 37 -64 52 -16 16 -34 28
-40 28 -6 0 -18 9 -26 20 -8 11 -19 20 -25 20 -5 0 -26 14 -45 30 -19 16 -41
30 -47 30 -7 0 -13 4 -13 8 0 5 -12 15 -27 23 -16 8 -37 22 -47 32 -11 9 -26
17 -33 17 -7 0 -13 5 -13 10 0 6 -7 10 -15 10 -9 0 -25 9 -37 20 -12 11 -28
20 -35 20 -7 0 -13 5 -13 10 0 6 -9 10 -20 10 -11 0 -20 5 -20 10 0 6 -9 10
-20 10 -11 0 -20 5 -20 10 0 6 -9 10 -20 10 -11 0 -20 5 -20 10 0 6 -9 10 -20
10 -11 0 -20 5 -20 10 0 6 -9 10 -20 10 -11 0 -20 5 -20 10 0 6 -7 10 -15 10
-8 0 -24 5 -35 10 -11 6 -29 15 -40 20 -11 6 -27 10 -35 10 -8 0 -15 5 -15 10
0 6 -9 10 -19 10 -11 0 -23 5 -26 10 -3 6 -17 10 -31 10 -13 0 -24 5 -24 10 0
6 -11 10 -24 10 -14 0 -28 5 -31 10 -3 6 -17 10 -30 10 -13 0 -27 5 -30 10 -3
6 -17 10 -30 10 -13 0 -27 5 -30 10 -3 6 -17 10 -31 10 -13 0 -32 4 -42 9 -33
17 -89 31 -120 31 -18 0 -32 4 -32 9 0 5 -21 12 -47 15 -27 4 -68 9 -93 12
-25 3 -49 10 -54 15 -6 5 -39 9 -74 9 -35 0 -71 4 -80 9 -24 12 -396 18 -582
9z m525 -23 c28 -3 82 -10 120 -15 39 -5 90 -12 115 -15 25 -3 54 -10 65 -15
11 -5 38 -11 60 -15 22 -3 57 -8 78 -11 20 -4 40 -10 43 -15 3 -5 16 -9 30 -9
13 0 32 -4 42 -9 9 -5 37 -14 62 -21 25 -7 53 -16 62 -21 10 -5 27 -9 37 -9
11 0 22 -4 25 -8 3 -4 28 -14 55 -22 28 -7 51 -17 51 -22 0 -4 14 -8 30 -8 17
0 30 -4 30 -10 0 -5 9 -10 20 -10 11 0 20 -4 20 -10 0 -5 7 -10 15 -10 9 0 35
-9 57 -20 23 -11 48 -20 55 -20 7 0 13 -4 13 -10 0 -5 9 -10 19 -10 11 0 21
-3 23 -7 3 -7 55 -37 115 -67 13 -6 23 -14 23 -18 0 -5 7 -8 15 -8 9 0 25 -9
37 -20 12 -11 28 -20 35 -20 7 0 13 -4 13 -10 0 -5 6 -10 13 -10 7 0 23 -9 35
-20 12 -11 25 -20 30 -20 4 0 17 -8 28 -17 10 -10 31 -24 47 -32 15 -8 27 -18
27 -23 0 -4 6 -8 13 -8 7 0 22 -8 33 -18 10 -10 35 -28 54 -42 19 -13 42 -31
50 -40 8 -8 40 -36 70 -60 70 -58 319 -306 356 -356 16 -22 36 -46 44 -54 9
-8 27 -31 40 -50 13 -19 30 -41 37 -48 7 -7 20 -26 30 -42 9 -17 21 -30 25
-30 4 0 8 -6 8 -12 0 -7 14 -29 30 -48 16 -19 30 -41 30 -47 0 -7 5 -13 10
-13 6 0 10 -6 10 -13 0 -7 9 -23 20 -35 11 -12 20 -28 20 -37 0 -8 5 -15 10
-15 6 0 10 -6 10 -13 0 -7 9 -23 20 -35 11 -12 20 -28 20 -37 0 -8 5 -15 10
-15 6 0 10 -9 10 -20 0 -11 5 -20 10 -20 6 0 10 -9 10 -19 0 -11 3 -21 8 -23
10 -4 52 -87 52 -104 0 -8 5 -14 10 -14 6 0 10 -9 10 -20 0 -11 5 -20 10 -20
6 0 10 -9 10 -19 0 -11 5 -23 10 -26 6 -3 10 -17 10 -31 0 -13 5 -24 10 -24 6
0 10 -9 10 -19 0 -11 5 -23 10 -26 6 -3 10 -17 10 -31 0 -13 5 -24 10 -24 6 0
10 -13 10 -30 0 -16 5 -30 10 -30 6 0 10 -11 10 -24 0 -14 5 -28 10 -31 6 -3
10 -19 10 -36 0 -16 4 -29 9 -29 5 0 11 -15 14 -32 3 -18 11 -53 17 -78 6 -25
14 -58 16 -75 3 -16 9 -39 14 -50 5 -11 11 -38 15 -60 3 -22 10 -67 16 -100
27 -163 33 -261 32 -545 0 -168 -6 -341 -12 -385 -6 -44 -13 -105 -17 -135 -3
-30 -10 -59 -15 -65 -5 -5 -9 -26 -9 -46 0 -21 -4 -41 -10 -44 -5 -3 -10 -24
-10 -45 0 -21 -4 -42 -10 -45 -5 -3 -10 -19 -10 -35 0 -16 -4 -32 -10 -35 -6
-3 -10 -17 -10 -31 0 -13 -4 -32 -9 -42 -5 -9 -15 -37 -22 -62 -7 -25 -16 -49
-21 -55 -4 -5 -8 -19 -8 -31 0 -13 -4 -26 -10 -29 -6 -3 -10 -17 -10 -31 0
-13 -4 -24 -10 -24 -5 0 -10 -9 -10 -19 0 -11 -4 -23 -10 -26 -5 -3 -10 -17
-10 -31 0 -13 -4 -24 -10 -24 -5 0 -10 -9 -10 -20 0 -11 -4 -20 -10 -20 -5 0
-10 -7 -10 -15 0 -16 -6 -29 -33 -80 -10 -16 -29 -55 -44 -85 -15 -30 -31 -56
-35 -58 -4 -2 -8 -12 -8 -23 0 -10 -4 -19 -9 -19 -5 0 -11 -8 -14 -18 -7 -20
-37 -71 -54 -89 -6 -7 -15 -22 -18 -33 -3 -11 -11 -20 -16 -20 -5 0 -9 -6 -9
-12 0 -7 -11 -26 -25 -42 -14 -16 -25 -32 -25 -36 0 -4 -11 -20 -25 -36 -14
-16 -25 -32 -25 -36 0 -5 -18 -27 -40 -49 -22 -23 -40 -46 -40 -51 0 -6 -13
-22 -28 -36 -15 -15 -39 -43 -52 -62 -31 -43 -252 -265 -304 -304 -20 -15 -53
-43 -71 -62 -19 -19 -38 -34 -43 -34 -4 0 -28 -18 -52 -40 -24 -22 -49 -40
-55 -40 -6 0 -17 -9 -25 -20 -8 -11 -19 -20 -25 -20 -5 0 -23 -11 -39 -25 -16
-13 -37 -27 -47 -30 -11 -4 -19 -11 -19 -16 0 -5 -6 -9 -13 -9 -7 0 -22 -8
-33 -17 -25 -23 -74 -53 -96 -60 -10 -3 -18 -9 -18 -14 0 -5 -9 -9 -20 -9 -11
0 -20 -4 -20 -10 0 -5 -9 -10 -20 -10 -11 0 -20 -4 -20 -10 0 -5 -9 -10 -20
-10 -11 0 -20 -4 -20 -10 0 -5 -9 -10 -20 -10 -11 0 -20 -4 -20 -10 0 -5 -9
-10 -20 -10 -11 0 -20 -4 -20 -10 0 -5 -9 -10 -20 -10 -11 0 -20 -4 -20 -10 0
-5 -7 -10 -15 -10 -8 0 -30 -9 -50 -20 -20 -11 -44 -20 -55 -20 -11 0 -20 -4
-20 -10 0 -5 -7 -10 -15 -10 -8 0 -23 -4 -33 -9 -35 -18 -69 -30 -137 -52 -38
-12 -78 -25 -87 -30 -10 -5 -29 -9 -43 -9 -14 0 -25 -4 -25 -9 0 -8 -23 -14
-113 -27 -20 -4 -40 -10 -43 -15 -3 -5 -24 -9 -48 -9 -23 0 -46 -4 -52 -9 -5
-5 -36 -12 -69 -15 -33 -3 -96 -10 -140 -16 -301 -40 -739 -23 -1055 40 -30 6
-74 14 -97 17 -24 3 -43 9 -43 14 0 5 -10 9 -22 9 -23 0 -81 16 -110 31 -10 5
-29 9 -43 9 -14 0 -25 5 -25 10 0 6 -13 10 -30 10 -16 0 -30 5 -30 10 0 6 -11
10 -24 10 -14 0 -28 5 -31 10 -3 6 -15 10 -26 10 -10 0 -19 5 -19 10 0 6 -11
10 -24 10 -14 0 -28 5 -31 10 -3 6 -15 10 -26 10 -10 0 -19 5 -19 10 0 6 -9
10 -20 10 -11 0 -20 5 -20 10 0 6 -7 10 -15 10 -17 0 -258 121 -263 132 -2 5
-12 8 -23 8 -10 0 -19 5 -19 10 0 6 -6 10 -13 10 -7 0 -23 9 -35 20 -12 11
-26 20 -32 20 -6 0 -20 9 -32 20 -12 11 -28 20 -35 20 -7 0 -13 4 -13 8 0 5
-12 15 -27 23 -16 8 -38 24 -51 37 -13 12 -27 22 -31 22 -5 0 -26 16 -47 35
-21 19 -42 35 -47 35 -5 0 -21 13 -35 28 -15 15 -43 39 -62 52 -45 32 -328
315 -360 360 -13 19 -37 47 -52 62 -15 14 -28 30 -28 35 0 5 -18 29 -40 53
-22 24 -40 49 -40 55 0 6 -9 17 -20 25 -11 8 -20 19 -20 25 0 6 -8 20 -17 31
-10 10 -24 31 -32 46 -8 16 -18 28 -23 28 -4 0 -8 7 -8 15 0 9 -9 25 -20 37
-11 12 -20 28 -20 35 0 7 -4 13 -10 13 -5 0 -10 9 -10 20 0 11 -3 20 -7 20 -5
0 -13 10 -19 23 -30 60 -60 112 -66 115 -5 2 -8 12 -8 23 0 10 -4 19 -10 19
-5 0 -10 7 -10 15 0 8 -4 24 -10 35 -6 11 -15 29 -20 40 -6 11 -10 27 -10 35
0 8 -4 15 -10 15 -5 0 -10 9 -10 19 0 11 -5 23 -10 26 -6 3 -10 17 -10 31 0
13 -4 24 -10 24 -5 0 -10 9 -10 19 0 11 -4 23 -10 26 -5 3 -10 17 -10 30 0 13
-4 27 -10 30 -5 3 -10 15 -10 26 0 10 -4 27 -9 37 -15 29 -31 87 -31 110 0 12
-4 22 -9 22 -5 0 -11 15 -14 33 -4 17 -9 48 -12 67 -4 19 -10 44 -15 55 -5 11
-11 38 -15 60 -3 22 -10 67 -16 100 -45 271 -54 650 -23 995 3 36 10 69 15 75
5 5 9 30 9 56 0 26 5 51 10 54 6 3 10 24 10 45 0 21 5 42 10 45 6 3 10 21 10
40 0 19 5 37 10 40 6 3 10 22 10 41 0 19 5 34 10 34 6 0 10 10 10 23 0 24 22
92 33 103 4 4 7 18 7 30 0 13 5 26 10 29 6 3 10 17 10 31 0 13 4 24 8 24 5 0
15 23 22 50 7 28 17 50 22 50 4 0 8 7 8 15 0 8 4 24 10 35 5 11 14 29 20 40 5
11 10 27 10 35 0 8 5 15 10 15 6 0 10 9 10 20 0 11 5 20 10 20 6 0 10 9 10 20
0 11 5 20 10 20 6 0 10 9 10 20 0 11 5 20 10 20 6 0 10 9 10 20 0 11 4 20 9
20 5 0 11 8 14 18 8 23 40 76 50 80 4 2 7 12 7 23 0 10 4 19 8 19 5 0 15 12
23 28 8 15 22 36 32 46 9 11 17 26 17 33 0 7 4 13 9 13 5 0 14 14 21 30 7 17
15 30 19 30 4 0 14 12 23 28 9 15 28 41 42 57 14 17 26 34 26 39 0 5 8 16 18
25 9 9 31 34 47 56 38 52 378 391 430 430 22 16 47 38 56 47 9 10 21 18 26 18
6 0 23 12 39 28 16 15 42 33 57 41 15 8 27 18 27 23 0 4 6 8 13 8 7 0 22 8 33
18 10 9 31 23 47 31 15 8 27 18 27 23 0 4 9 8 20 8 11 0 20 4 20 8 0 5 12 15
28 23 15 8 29 16 32 19 10 10 65 41 83 47 9 3 17 9 17 14 0 5 9 9 20 9 11 0
20 5 20 10 0 6 9 10 20 10 11 0 20 5 20 10 0 6 9 10 20 10 11 0 20 5 20 10 0
6 9 10 20 10 11 0 20 5 20 10 0 6 7 10 15 10 8 0 24 5 35 10 11 6 29 15 40 20
11 6 27 10 35 10 8 0 15 5 15 10 0 6 9 10 20 10 11 0 30 5 43 12 48 24 57 28
76 28 11 0 23 5 26 10 3 6 17 10 30 10 13 0 27 5 30 10 3 6 17 10 30 10 13 0
27 5 30 10 3 6 19 10 35 10 16 0 32 5 35 10 3 6 19 10 35 10 16 0 31 4 34 9 3
5 23 11 43 15 21 3 56 8 78 11 22 4 49 10 60 15 11 5 40 12 65 15 25 3 79 10
120 16 149 21 591 29 745 14z"/>
<path d="M4221 6272 c1 -27 -1 -54 -5 -60 -9 -15 -62 -16 -71 -2 -3 6 -24 10
-46 10 -21 0 -39 5 -39 10 0 6 -18 10 -40 10 -38 0 -40 -2 -40 -30 0 -28 2
-30 40 -30 22 0 40 -4 40 -10 0 -5 12 -10 26 -10 27 0 61 -26 50 -38 -4 -4
-45 -5 -90 -4 -71 3 -84 0 -90 -14 -4 -9 -4 -20 0 -23 3 -3 46 -6 95 -5 70 0
89 -2 89 -13 0 -19 -25 -43 -44 -43 -9 0 -16 -4 -16 -10 0 -5 -22 -10 -48 -10
-61 0 -92 -28 -92 -83 0 -20 -4 -37 -10 -37 -5 0 -10 -9 -10 -19 0 -11 -4 -23
-10 -26 -5 -3 -10 -21 -10 -39 0 -33 1 -34 53 -40 28 -4 81 -12 117 -17 36 -5
84 -12 108 -15 23 -3 42 -10 42 -15 0 -5 11 -9 24 -9 14 0 28 -4 31 -10 3 -5
15 -10 26 -10 10 0 19 -4 19 -10 0 -5 9 -10 20 -10 11 0 20 -4 20 -10 0 -5 6
-10 13 -10 7 0 23 -9 35 -20 12 -11 25 -20 30 -20 6 0 17 -11 25 -23 34 -52
109 -117 134 -117 20 0 24 4 18 18 -4 9 -10 27 -12 40 -3 12 -9 22 -14 22 -5
0 -9 10 -9 23 0 26 21 77 33 77 4 0 7 13 7 29 0 17 5 33 10 36 6 3 10 26 10
50 0 24 5 47 10 50 6 3 10 29 10 56 0 52 -15 79 -44 79 -9 0 -16 5 -16 10 0 6
-9 10 -20 10 -24 0 -25 6 -4 27 13 13 20 14 35 5 10 -7 26 -12 34 -12 8 0 15
-4 15 -10 0 -15 49 -12 66 4 8 8 14 22 14 30 0 9 5 16 10 16 6 0 10 11 10 24
0 24 -39 55 -105 85 -16 7 -38 17 -47 22 -10 5 -25 9 -33 9 -8 0 -15 5 -15 10
0 6 -13 10 -29 10 -17 0 -33 5 -36 10 -10 16 -104 12 -121 -4 -8 -8 -14 -34
-14 -60 0 -42 2 -46 24 -46 14 0 28 -4 31 -10 3 -5 14 -10 25 -10 18 0 34 -23
23 -34 -4 -3 -35 -6 -70 -6 -63 0 -65 -1 -112 -47 -70 -71 -85 -78 -116 -51
-28 24 -33 58 -9 58 20 0 44 24 44 44 0 8 5 18 10 21 6 3 10 20 10 36 0 34 26
79 46 79 8 0 14 5 14 10 0 6 7 10 15 10 21 0 37 44 25 74 -10 27 -60 66 -85
66 -13 0 -16 -9 -14 -48z m244 -122 c3 -5 17 -10 31 -10 13 0 24 -4 24 -10 0
-5 11 -10 24 -10 14 0 28 -4 31 -10 3 -5 13 -10 21 -10 21 0 64 -41 64 -62 0
-24 -39 -24 -66 0 -29 25 -53 37 -106 53 -42 12 -48 17 -48 41 0 28 13 37 25
18z m-39 -184 c21 -21 18 -26 -16 -26 -23 0 -30 4 -30 20 0 23 25 27 46 6z
m-362 -41 c15 -40 -33 -125 -70 -125 -21 0 -17 70 6 108 21 34 54 43 64 17z
m482 1 c17 -18 19 -46 2 -46 -16 0 -48 31 -48 47 0 17 28 17 46 -1z m-186 -16
c0 -5 9 -10 20 -10 14 0 20 -7 20 -24 0 -24 -28 -44 -39 -28 -3 5 -14 11 -23
15 -26 9 -24 57 2 57 11 0 20 -4 20 -10z m-180 -76 c0 -14 -7 -32 -16 -41 -13
-13 -19 -14 -40 -3 -43 24 -25 70 28 70 23 0 28 -4 28 -26z m375 -16 c28 -24
33 -58 9 -58 -15 0 -84 61 -84 74 0 15 52 4 75 -16z m-207 -11 c23 -18 14 -61
-15 -74 -36 -17 -39 -17 -68 9 -15 13 -25 32 -25 49 0 23 5 28 28 31 33 4 63
-1 80 -15z m132 -57 c0 -5 6 -10 14 -10 14 0 46 -41 46 -60 0 -22 -29 -40 -64
-40 -20 0 -36 4 -36 9 0 5 -9 11 -20 14 -15 4 -20 14 -20 39 0 19 5 39 12 46
14 14 68 16 68 2z"/>
<path d="M2273 6253 c-15 -6 -17 -49 -3 -58 6 -3 10 -24 10 -47 0 -31 -4 -41
-20 -45 -11 -3 -20 -8 -20 -12 0 -4 -21 -12 -47 -19 -27 -8 -56 -18 -65 -23
-10 -5 -27 -9 -37 -9 -11 0 -23 -4 -26 -10 -3 -5 -13 -10 -21 -10 -27 0 -66
-48 -62 -78 3 -24 6 -27 38 -24 19 1 37 7 38 12 2 6 10 10 18 10 8 0 24 9 36
20 12 11 28 20 35 20 7 0 13 5 13 10 0 6 9 10 20 10 11 0 20 5 20 10 0 6 9 10
20 10 11 0 20 5 20 10 0 6 7 10 15 10 8 0 24 5 34 12 15 9 22 8 37 -6 17 -17
15 -20 -38 -71 -30 -29 -68 -70 -84 -91 -16 -22 -41 -51 -56 -66 -16 -14 -28
-33 -28 -42 0 -9 -3 -16 -8 -16 -7 0 -35 -56 -59 -120 -25 -67 -9 -120 36
-120 41 0 54 26 68 138 3 23 9 42 14 42 5 0 9 9 9 20 0 21 27 73 57 111 47 59
127 129 148 129 8 0 15 5 15 10 0 6 14 10 30 10 17 0 30 5 30 10 0 6 30 10 70
10 40 0 70 -4 70 -10 0 -5 14 -10 30 -10 17 0 30 -4 30 -10 0 -5 7 -10 15 -10
9 0 27 -11 40 -24 14 -14 42 -37 62 -53 21 -15 47 -36 57 -45 24 -22 52 -23
72 -4 12 13 12 20 -7 53 -26 47 -68 93 -86 93 -7 0 -13 3 -13 8 0 8 -49 32
-67 32 -7 0 -13 4 -13 9 0 14 -66 23 -193 26 -65 2 -121 5 -123 8 -9 8 8 37
22 37 8 0 14 5 14 10 0 6 11 10 24 10 14 0 27 4 30 9 7 11 61 21 148 28 58 4
69 8 83 30 14 21 15 27 4 35 -15 9 -128 0 -144 -12 -10 -8 -36 -13 -137 -30
-71 -12 -108 -1 -108 33 0 38 -29 56 -67 40z"/>
<path d="M3314 5682 c-11 -7 -18 -35 -30 -117 -12 -89 -9 -85 -69 -85 -54 0
-55 0 -55 30 0 17 -4 30 -10 30 -5 0 -10 15 -10 34 0 19 -4 38 -10 41 -5 3
-10 20 -10 37 0 28 -2 30 -27 23 -16 -3 -43 -9 -60 -12 l-33 -5 0 -97 c0 -95
-1 -98 -25 -109 -14 -7 -41 -12 -60 -12 -28 0 -35 4 -35 19 0 11 -4 23 -10 26
-5 3 -10 17 -10 31 0 13 -4 24 -10 24 -5 0 -10 6 -10 13 0 7 -6 25 -12 40 -10
20 -20 27 -40 27 -16 0 -28 -4 -28 -10 0 -5 -14 -10 -31 -10 -31 0 -31 -1 -24
-37 3 -21 9 -70 11 -108 l5 -70 -45 -14 c-39 -11 -47 -11 -61 2 -8 9 -15 23
-15 31 0 9 -4 16 -10 16 -5 0 -10 6 -10 13 0 7 -9 23 -20 35 -11 12 -20 28
-20 37 0 11 -11 15 -40 15 -22 0 -40 -4 -40 -10 0 -5 -9 -10 -21 -10 -19 0
-20 -4 -15 -35 3 -19 9 -51 12 -70 3 -19 10 -38 15 -41 5 -3 9 -20 9 -37 0
-28 -5 -35 -41 -50 -45 -20 -66 -17 -76 10 -4 9 -19 30 -35 47 -15 16 -28 33
-28 38 0 15 -27 38 -44 38 -9 0 -16 -4 -16 -10 0 -5 -7 -10 -16 -10 -8 0 -22
-6 -30 -14 -16 -17 -19 -72 -4 -81 6 -3 10 -15 10 -26 0 -10 5 -19 10 -19 6 0
10 -9 10 -19 0 -11 5 -23 10 -26 16 -10 11 -45 -7 -52 -10 -4 -25 -15 -34 -25
-9 -10 -22 -18 -28 -18 -7 0 -43 32 -81 70 -76 77 -80 78 -139 21 -24 -23 -24
-24 -7 -50 9 -14 20 -34 23 -43 3 -10 9 -18 14 -18 5 0 9 -9 9 -20 0 -11 3
-20 8 -20 4 0 13 -12 19 -27 11 -24 10 -28 -15 -50 -15 -12 -30 -23 -34 -23
-3 0 -13 -3 -21 -6 -8 -3 -26 6 -40 20 -15 14 -30 26 -35 26 -5 0 -23 14 -40
30 -18 17 -37 30 -42 30 -15 0 -80 -67 -80 -82 0 -8 9 -20 20 -28 11 -8 20
-20 20 -26 0 -6 13 -25 29 -42 42 -44 44 -72 7 -114 -22 -24 -27 -26 -50 -15
-14 7 -26 15 -26 20 0 4 -9 7 -20 7 -11 0 -20 5 -20 10 0 6 -9 10 -20 10 -11
0 -20 4 -20 8 0 5 -11 15 -25 22 -23 12 -27 11 -60 -25 -19 -22 -35 -43 -35
-47 0 -5 32 -40 70 -78 39 -38 70 -74 70 -81 0 -6 -8 -19 -18 -28 -10 -9 -21
-24 -25 -33 -7 -19 -42 -24 -52 -8 -3 6 -15 10 -26 10 -10 0 -19 5 -19 10 0 6
-8 10 -18 10 -10 0 -22 4 -28 9 -29 28 -94 5 -94 -33 0 -9 -4 -16 -10 -16 -20
0 -9 -33 18 -56 15 -13 30 -24 34 -24 5 0 26 -17 49 -38 l40 -39 -18 -41 c-16
-38 -21 -42 -55 -42 -20 0 -40 5 -43 10 -3 6 -19 10 -35 10 -16 0 -32 5 -35
10 -3 6 -19 10 -36 10 -22 0 -29 -5 -29 -20 0 -11 -4 -20 -9 -20 -10 0 -20
-56 -12 -67 8 -11 62 -43 84 -50 9 -3 17 -9 17 -14 0 -5 7 -9 16 -9 32 0 59
-50 34 -65 -6 -3 -10 -18 -10 -31 0 -25 0 -26 -72 -21 -40 3 -90 9 -110 12
-36 7 -38 6 -38 -18 0 -14 -4 -29 -10 -32 -5 -3 -10 -18 -10 -33 0 -26 33 -52
67 -52 7 0 13 -4 13 -10 0 -5 7 -10 15 -10 8 0 23 -4 33 -9 9 -5 25 -12 35
-15 20 -6 23 -52 5 -91 -11 -24 -14 -25 -108 -25 l-97 0 -11 -51 c-16 -69 -16
-69 18 -69 17 0 30 -4 30 -10 0 -5 15 -10 34 -10 19 0 38 -4 41 -10 3 -5 19
-10 36 -10 28 0 29 -1 29 -49 0 -56 -9 -66 -65 -75 -22 -3 -62 -9 -90 -13
l-50 -8 -3 -56 -3 -56 53 -7 c162 -21 158 -19 158 -87 0 -48 -1 -49 -30 -49
-16 0 -30 -4 -30 -10 0 -5 -15 -10 -34 -10 -19 0 -38 -4 -41 -10 -3 -5 -19
-10 -36 -10 -33 0 -35 -8 -17 -75 l12 -45 96 0 c94 0 97 -1 108 -25 7 -14 12
-41 12 -60 0 -28 -4 -35 -19 -35 -11 0 -23 -4 -26 -10 -3 -5 -17 -10 -31 -10
-13 0 -24 -4 -24 -10 0 -5 -9 -10 -20 -10 -11 0 -20 -4 -20 -10 0 -5 -9 -10
-20 -10 -15 0 -20 -7 -20 -29 0 -17 4 -33 10 -36 5 -3 10 -18 10 -32 0 -24 2
-25 37 -19 21 4 71 9 111 12 l72 6 0 -25 c0 -14 5 -29 10 -32 25 -15 -2 -65
-34 -65 -9 0 -16 -4 -16 -9 0 -5 -8 -11 -17 -14 -24 -8 -76 -40 -85 -52 -9
-12 2 -59 14 -63 4 -2 8 -12 8 -23 0 -14 7 -19 29 -19 17 0 33 5 36 10 3 5 22
10 41 10 19 0 34 5 34 10 0 6 17 10 38 10 34 0 39 -3 55 -40 19 -44 21 -60 9
-60 -4 0 -28 -18 -52 -40 -24 -22 -48 -40 -53 -40 -14 0 -37 -27 -37 -44 0 -9
5 -16 10 -16 6 0 10 -9 10 -20 0 -11 5 -20 10 -20 6 0 10 -7 10 -16 0 -12 7
-14 33 -9 17 4 36 11 41 16 6 5 18 9 28 9 10 0 18 3 18 8 0 10 71 31 87 25 7
-3 13 -10 13 -17 0 -6 9 -18 20 -26 11 -8 20 -20 20 -28 0 -7 -31 -44 -70 -82
-38 -38 -70 -73 -70 -78 0 -4 16 -26 36 -47 35 -39 35 -39 62 -21 15 9 35 20
45 23 9 3 17 9 17 14 0 5 9 9 20 9 11 0 20 4 20 9 0 5 12 12 27 16 23 5 32 1
50 -22 31 -38 29 -67 -7 -105 -16 -17 -30 -36 -30 -42 0 -6 -9 -18 -20 -26
-28 -20 -25 -41 13 -78 38 -37 57 -40 77 -12 8 11 20 20 26 20 6 0 25 14 42
30 38 36 67 38 105 7 23 -18 27 -27 22 -50 -4 -15 -11 -27 -16 -27 -5 0 -9 -9
-9 -20 0 -11 -4 -20 -9 -20 -5 0 -11 -8 -14 -18 -3 -9 -14 -29 -23 -44 -18
-27 -18 -27 21 -62 21 -20 43 -36 47 -36 5 0 40 32 78 70 38 39 74 70 81 70 6
0 19 -8 28 -18 9 -10 24 -21 34 -25 18 -7 23 -42 7 -52 -5 -3 -10 -15 -10 -26
0 -10 -4 -19 -10 -19 -5 0 -10 -8 -10 -18 0 -10 -4 -22 -9 -27 -5 -6 -12 -25
-16 -43 -5 -25 -3 -32 9 -32 9 0 16 -4 16 -10 0 -5 9 -10 20 -10 11 0 20 -4
20 -10 0 -5 7 -10 16 -10 16 0 44 23 44 37 0 5 20 31 45 59 37 41 51 50 70 46
14 -2 25 -8 25 -13 0 -5 9 -9 20 -9 16 0 20 -7 20 -34 0 -19 -4 -37 -9 -40 -5
-3 -12 -22 -15 -41 -3 -19 -9 -51 -12 -70 -5 -31 -4 -35 15 -35 12 0 21 -4 21
-10 0 -5 18 -10 40 -10 29 0 40 4 40 15 0 9 9 25 20 37 11 12 20 28 20 35 0 7
5 13 10 13 6 0 10 7 10 16 0 32 50 59 65 34 3 -6 18 -10 32 -10 l25 0 -6 -72
c-3 -40 -8 -90 -12 -111 -6 -35 -5 -37 19 -37 14 0 29 -4 32 -10 3 -5 19 -10
36 -10 22 0 29 5 29 20 0 11 5 20 10 20 6 0 10 7 10 15 0 8 5 24 10 35 6 11
15 29 20 40 6 11 10 27 10 35 0 18 57 21 95 3 24 -11 25 -14 25 -108 l0 -97
33 -7 c17 -3 44 -9 60 -12 25 -6 27 -4 27 24 0 17 5 34 10 37 6 3 10 22 10 41
0 19 5 34 10 34 6 0 10 14 10 30 0 30 1 30 55 30 60 0 58 3 69 -85 3 -22 9
-59 12 -83 l7 -43 56 3 56 3 8 50 c4 28 11 73 15 100 l7 50 58 3 57 3 0 -30
c0 -16 5 -33 10 -36 6 -3 10 -22 10 -41 0 -19 5 -34 10 -34 6 0 10 -14 10 -31
0 -29 2 -31 28 -25 15 3 42 9 60 12 l32 7 0 97 c0 94 1 97 25 108 48 22 82 15
99 -20 9 -17 16 -39 16 -50 0 -10 5 -18 10 -18 6 0 10 -6 10 -13 0 -34 26 -67
52 -67 15 0 30 5 33 10 3 6 18 10 32 10 24 0 25 2 18 37 -3 21 -9 71 -12 111
-5 72 -4 72 21 72 13 0 28 4 31 10 15 24 65 -2 65 -33 0 -9 3 -17 8 -19 9 -4
41 -57 49 -81 4 -12 16 -17 44 -17 22 0 39 5 39 10 0 6 9 10 20 10 15 0 20 7
20 29 0 17 -4 33 -10 36 -5 3 -10 19 -10 35 0 16 -4 32 -10 35 -5 3 -10 23
-10 43 0 34 4 39 42 55 l41 18 39 -40 c21 -23 38 -44 38 -49 0 -4 11 -19 24
-34 23 -27 56 -38 56 -18 0 6 9 10 20 10 11 0 20 5 20 10 0 6 7 10 15 10 11 0
13 8 8 33 -3 17 -10 36 -14 42 -5 5 -9 17 -9 27 0 10 -3 18 -8 18 -10 0 -34
79 -27 91 4 5 12 9 18 9 7 0 19 9 27 20 8 11 20 20 28 20 7 0 44 -32 82 -70
38 -39 73 -70 78 -70 4 0 26 16 47 36 39 35 39 35 21 62 -9 15 -20 35 -23 45
-3 9 -9 17 -14 17 -5 0 -9 9 -9 20 0 11 -4 20 -9 20 -5 0 -12 12 -16 27 -5 23
-1 32 22 50 38 31 67 29 105 -7 17 -16 36 -30 42 -30 6 0 18 -9 26 -20 20 -28
41 -25 78 13 37 38 40 57 12 77 -11 8 -20 20 -20 26 0 6 -13 24 -28 40 -41 44
-43 57 -15 99 21 31 29 36 51 30 15 -4 29 -11 30 -16 2 -5 12 -9 23 -9 10 0
19 -4 19 -9 0 -5 8 -11 18 -14 9 -3 29 -14 44 -23 27 -18 27 -18 62 21 20 21
36 43 36 47 0 5 -31 40 -70 78 -38 38 -70 75 -70 82 0 8 9 20 20 28 11 8 20
20 20 27 0 6 4 14 9 18 12 7 91 -17 91 -27 0 -5 8 -8 18 -8 10 0 22 -4 28 -9
5 -5 24 -12 42 -16 25 -5 32 -3 32 9 0 9 5 16 10 16 6 0 10 9 10 20 0 11 5 20
10 20 6 0 10 7 10 16 0 17 -23 44 -37 44 -5 0 -33 22 -62 48 l-53 48 19 42
c15 37 22 42 50 42 17 0 35 -4 38 -10 3 -5 21 -10 40 -10 19 0 37 -4 40 -10 3
-5 19 -10 36 -10 22 0 29 5 29 19 0 11 4 21 8 23 12 4 23 51 14 63 -9 12 -61
44 -84 52 -10 3 -18 9 -18 14 0 5 -7 9 -16 9 -32 0 -59 50 -34 65 6 3 10 18
10 32 l0 25 73 -6 c39 -3 88 -8 107 -11 34 -6 35 -5 48 34 6 22 12 49 12 58 0
17 -40 43 -67 43 -7 0 -13 5 -13 10 0 6 -11 10 -24 10 -14 0 -28 5 -31 10 -3
6 -15 10 -26 10 -15 0 -19 7 -19 33 0 18 6 45 13 60 12 26 14 27 107 27 l96 0
12 45 c18 67 16 75 -17 75 -17 0 -33 5 -36 10 -3 6 -22 10 -41 10 -19 0 -34 5
-34 10 0 6 -13 10 -30 10 -29 0 -30 1 -30 49 0 68 -4 65 158 87 l52 7 0 57 0
58 -47 6 c-101 11 -138 19 -150 28 -7 6 -13 32 -13 59 0 48 1 49 29 49 17 0
33 5 36 10 3 6 22 10 41 10 19 0 34 5 34 10 0 6 14 10 30 10 34 0 36 8 18 75
l-12 45 -96 0 -95 0 -13 30 c-7 16 -12 41 -10 56 2 22 11 30 48 43 25 9 47 19
48 24 2 4 9 7 16 7 33 0 66 26 66 52 0 15 -4 30 -10 33 -5 3 -10 18 -10 32 0
24 -2 25 -37 18 -21 -3 -71 -9 -110 -12 -73 -5 -73 -4 -73 21 0 13 -4 28 -10
31 -25 15 2 65 34 65 9 0 16 4 16 9 0 5 8 11 18 14 23 8 75 40 84 52 9 12 -2
59 -14 63 -4 2 -8 12 -8 23 0 14 -7 19 -29 19 -17 0 -33 -4 -36 -10 -3 -5 -19
-10 -35 -10 -16 0 -32 -4 -35 -10 -3 -5 -23 -10 -43 -10 -34 0 -39 4 -55 42
l-18 41 40 39 c23 21 44 38 49 38 4 0 19 11 35 24 26 23 37 56 17 56 -5 0 -10
9 -10 20 0 11 -4 20 -10 20 -5 0 -10 7 -10 15 0 11 -8 13 -32 8 -18 -3 -37
-10 -42 -14 -6 -5 -18 -9 -28 -9 -10 0 -18 -4 -18 -10 0 -5 -9 -10 -19 -10
-11 0 -23 -4 -26 -10 -10 -16 -45 -11 -52 8 -4 9 -15 24 -25 33 -10 9 -18 22
-18 28 0 7 32 43 70 81 39 38 70 73 70 78 0 4 -16 25 -35 47 -33 36 -37 37
-60 25 -14 -7 -25 -17 -25 -22 0 -4 -9 -8 -20 -8 -11 0 -20 -4 -20 -10 0 -5
-9 -10 -20 -10 -11 0 -20 -3 -20 -7 0 -5 -11 -13 -24 -19 -22 -10 -28 -8 -52
17 -35 37 -34 69 5 109 17 18 31 38 31 44 0 6 9 18 20 26 28 20 25 36 -15 75
-39 40 -55 43 -75 15 -8 -11 -19 -20 -25 -20 -6 0 -28 -16 -50 -35 -21 -20
-45 -33 -53 -30 -7 3 -17 5 -20 5 -4 0 -19 11 -34 23 -25 22 -26 26 -15 50 6
15 15 27 20 27 4 0 7 9 7 20 0 11 4 20 9 20 5 0 11 8 14 18 3 9 14 29 23 43
17 26 17 27 -7 50 -59 57 -63 56 -139 -21 -38 -38 -74 -70 -81 -70 -6 0 -19 8
-28 18 -9 10 -24 21 -33 25 -19 7 -24 42 -8 52 6 3 10 15 10 26 0 10 5 19 10
19 6 0 10 8 10 18 0 10 4 22 9 28 28 29 5 94 -33 94 -9 0 -16 5 -16 10 0 6 -7
10 -16 10 -17 0 -44 -23 -44 -37 0 -5 -18 -29 -40 -53 -22 -24 -40 -48 -40
-52 0 -12 -16 -10 -60 9 -37 16 -40 21 -40 55 0 21 5 38 10 38 6 0 10 15 10
34 0 19 5 38 10 41 6 3 10 19 10 36 0 22 -5 29 -19 29 -11 0 -23 5 -26 10 -11
18 -72 12 -78 -7 -8 -24 -40 -77 -49 -81 -5 -2 -8 -10 -8 -19 0 -8 -7 -21 -15
-30 -14 -13 -22 -13 -61 -2 l-45 14 5 70 c2 38 8 87 11 108 7 36 7 37 -24 37
-17 0 -31 5 -31 10 0 6 -12 10 -27 10 -21 0 -31 -7 -40 -27 -7 -15 -13 -32
-13 -39 0 -7 -3 -14 -7 -16 -5 -1 -15 -23 -24 -48 -13 -37 -21 -46 -43 -48
-16 -2 -41 2 -57 8 l-29 12 0 98 0 98 -32 5 c-18 3 -45 9 -60 12 -26 7 -28 5
-28 -23 0 -17 -4 -34 -10 -37 -5 -3 -10 -19 -10 -35 0 -16 -4 -32 -10 -35 -5
-3 -10 -20 -10 -36 l0 -30 -57 3 -58 3 -7 50 c-4 28 -10 70 -14 95 -7 52 -16
60 -64 60 -19 0 -40 -4 -46 -8z m261 -418 c44 -3 84 -10 90 -15 5 -5 28 -9 51
-9 24 0 45 -4 48 -9 3 -5 23 -11 43 -15 90 -13 113 -19 113 -27 0 -5 14 -9 30
-9 17 0 30 -4 30 -10 0 -5 9 -10 20 -10 11 0 28 -4 38 -9 9 -5 31 -14 47 -21
17 -7 38 -16 47 -21 10 -5 25 -9 33 -9 8 0 15 -4 15 -10 0 -5 9 -10 20 -10 11
0 20 -4 20 -10 0 -5 9 -10 20 -10 11 0 20 -4 20 -9 0 -5 8 -11 18 -14 17 -6
72 -37 82 -47 3 -3 17 -11 33 -19 15 -8 27 -18 27 -23 0 -4 6 -8 13 -8 7 0 22
-8 33 -18 10 -10 34 -28 53 -42 96 -67 294 -265 361 -361 14 -19 32 -43 42
-53 10 -11 18 -26 18 -33 0 -7 4 -13 8 -13 5 0 15 -12 23 -27 8 -16 16 -30 19
-33 10 -10 41 -65 47 -82 3 -10 9 -18 14 -18 5 0 9 -9 9 -20 0 -11 5 -20 10
-20 6 0 10 -9 10 -20 0 -11 5 -20 10 -20 6 0 10 -7 10 -15 0 -8 5 -25 12 -38
24 -47 28 -57 28 -72 0 -8 5 -15 10 -15 6 0 10 -13 10 -30 0 -16 5 -30 10 -30
6 0 10 -13 10 -30 0 -16 4 -30 9 -30 5 0 11 -15 14 -32 3 -18 11 -53 17 -78
63 -250 71 -557 20 -810 -6 -30 -14 -72 -17 -93 -3 -20 -9 -40 -14 -43 -5 -3
-9 -18 -9 -34 0 -16 -4 -32 -10 -35 -5 -3 -10 -17 -10 -30 0 -13 -4 -27 -10
-30 -5 -3 -10 -17 -10 -31 0 -13 -4 -24 -10 -24 -5 0 -10 -7 -10 -15 0 -9 -9
-35 -20 -57 -11 -23 -20 -48 -20 -55 0 -7 -4 -13 -10 -13 -5 0 -10 -9 -10 -20
0 -11 -4 -20 -10 -20 -5 0 -10 -9 -10 -20 0 -11 -4 -20 -10 -20 -5 0 -10 -7
-10 -15 0 -9 -9 -25 -20 -37 -11 -12 -20 -28 -20 -35 0 -7 -4 -13 -10 -13 -5
0 -10 -8 -10 -18 0 -10 -9 -24 -20 -32 -11 -8 -20 -20 -20 -27 0 -7 -13 -27
-30 -45 -16 -17 -30 -35 -30 -40 0 -6 -12 -22 -28 -36 -15 -15 -39 -43 -53
-62 -34 -45 -134 -145 -179 -179 -19 -14 -47 -38 -62 -53 -14 -16 -30 -28 -36
-28 -5 0 -23 -13 -40 -30 -18 -16 -38 -30 -45 -30 -7 0 -19 -9 -27 -20 -8 -11
-22 -20 -32 -20 -10 0 -18 -4 -18 -10 0 -5 -6 -10 -13 -10 -7 0 -23 -9 -35
-20 -12 -11 -28 -20 -37 -20 -8 0 -15 -4 -15 -10 0 -5 -9 -10 -20 -10 -11 0
-20 -4 -20 -10 0 -5 -9 -10 -20 -10 -11 0 -20 -4 -20 -10 0 -5 -6 -10 -13 -10
-7 0 -32 -9 -55 -20 -22 -11 -48 -20 -57 -20 -8 0 -15 -4 -15 -10 0 -5 -11
-10 -24 -10 -14 0 -28 -5 -31 -10 -3 -5 -17 -10 -30 -10 -13 0 -27 -4 -30 -10
-3 -5 -19 -10 -35 -10 -16 0 -31 -4 -34 -9 -3 -5 -23 -11 -43 -14 -21 -3 -63
-11 -93 -17 -231 -46 -489 -46 -720 0 -30 6 -72 14 -93 17 -20 3 -40 9 -43 14
-3 5 -18 9 -34 9 -16 0 -32 4 -35 10 -3 5 -17 10 -30 10 -13 0 -27 5 -30 10
-3 6 -17 10 -31 10 -13 0 -24 4 -24 8 0 5 -22 15 -50 22 -27 7 -50 17 -50 22
0 4 -9 8 -20 8 -11 0 -20 5 -20 10 0 6 -9 10 -20 10 -11 0 -20 5 -20 10 0 6
-9 10 -20 10 -11 0 -20 5 -20 10 0 6 -7 10 -15 10 -9 0 -25 9 -37 20 -12 11
-28 20 -35 20 -7 0 -13 5 -13 10 0 6 -9 10 -20 10 -11 0 -20 4 -20 8 0 5 -12
15 -27 23 -15 8 -41 26 -57 42 -16 15 -33 27 -39 27 -5 0 -17 8 -26 18 -9 9
-41 38 -71 62 -69 57 -123 111 -180 180 -24 30 -53 62 -62 71 -10 9 -18 21
-18 26 0 6 -12 23 -27 39 -16 16 -34 42 -42 57 -8 15 -18 27 -23 27 -4 0 -8 9
-8 20 0 11 -4 20 -10 20 -5 0 -10 6 -10 13 0 7 -9 23 -20 35 -11 12 -20 28
-20 37 0 8 -4 15 -10 15 -5 0 -10 9 -10 20 0 11 -4 20 -10 20 -5 0 -10 9 -10
20 0 11 -4 20 -10 20 -5 0 -10 9 -10 20 0 11 -4 20 -8 20 -5 0 -15 23 -22 50
-7 28 -17 50 -22 50 -4 0 -8 11 -8 24 0 14 -4 28 -10 31 -5 3 -10 17 -10 30 0
13 -4 27 -10 30 -5 3 -10 19 -10 35 0 16 -4 31 -9 34 -5 3 -11 23 -14 43 -3
21 -11 63 -17 93 -45 226 -45 494 0 720 6 30 14 72 17 93 3 20 9 40 14 43 5 3
9 18 9 34 0 16 5 32 10 35 6 3 10 17 10 30 0 13 5 27 10 30 6 3 10 17 10 31 0
13 5 24 10 24 6 0 10 7 10 15 0 15 4 25 28 72 7 13 12 30 12 38 0 8 5 15 10
15 6 0 10 9 10 20 0 11 5 20 10 20 6 0 10 9 10 20 0 11 4 20 9 20 5 0 11 8 14
18 8 23 40 76 50 80 4 2 7 11 7 21 0 9 9 23 20 31 11 8 20 19 20 25 0 5 14 26
30 45 16 19 30 39 30 43 0 4 15 23 33 42 17 19 54 60 82 92 27 32 76 81 108
108 32 28 73 65 92 83 19 17 38 32 42 32 4 0 24 14 43 30 19 16 41 30 48 30 6
0 12 4 12 8 0 5 12 15 28 23 15 8 29 16 32 19 10 10 65 41 83 47 9 3 17 9 17
14 0 5 9 9 20 9 11 0 20 5 20 10 0 6 9 10 20 10 11 0 20 5 20 10 0 6 7 10 15
10 8 0 24 5 35 10 11 6 29 15 40 20 11 6 27 10 35 10 8 0 15 5 15 10 0 6 14
10 30 10 17 0 30 5 30 10 0 6 14 10 30 10 17 0 30 4 30 9 0 5 15 11 33 14 17
3 52 11 77 17 82 21 144 31 244 40 54 5 102 12 105 16 6 6 145 1 316 -12z"/>
<path d="M3240 4750 c0 -67 -4 -110 -10 -110 -5 0 -10 9 -10 19 0 11 -4 23
-10 26 -5 3 -10 15 -10 26 0 22 -12 21 -72 -4 -28 -12 -38 -27 -18 -27 6 0 10
-6 10 -13 0 -7 6 -25 13 -40 9 -20 19 -27 40 -27 15 0 27 5 27 10 0 6 9 10 20
10 20 0 20 -7 20 -365 l0 -365 120 0 120 0 0 485 0 485 -120 0 -120 0 0 -110z
m180 -30 c0 -39 -93 -41 -98 -2 -3 20 0 22 47 22 44 0 51 -3 51 -20z m-16 -76
c9 -3 16 -15 16 -25 0 -16 -8 -19 -50 -19 -42 0 -50 3 -50 18 0 10 3 22 7 25
8 9 56 9 77 1z m0 -100 c9 -3 16 -15 16 -25 0 -16 -8 -19 -50 -19 -42 0 -50 3
-50 18 0 10 3 22 7 25 8 9 56 9 77 1z m14 -116 c3 -27 2 -28 -47 -28 -50 0
-51 1 -51 31 0 30 1 30 48 27 43 -3 47 -5 50 -30z"/>
<path d="M3572 4338 l3 -443 103 -3 102 -3 0 346 c0 190 3 345 8 345 4 0 15
-17 24 -37 23 -49 51 -97 61 -101 4 -2 7 -12 7 -23 0 -10 5 -19 10 -19 6 0 10
-9 10 -20 0 -11 4 -20 9 -20 5 0 11 -8 14 -17 8 -24 40 -77 50 -81 4 -2 7 -12
7 -23 0 -10 5 -19 10 -19 6 0 10 -9 10 -19 0 -11 3 -21 8 -23 9 -4 41 -57 49
-80 3 -10 9 -18 14 -18 5 0 9 -9 9 -20 0 -11 5 -20 10 -20 6 0 10 -9 10 -19 0
-11 3 -21 8 -23 4 -1 18 -24 31 -50 13 -27 29 -48 36 -48 17 0 65 24 65 33 0
4 9 7 20 7 11 0 20 5 20 10 0 6 7 10 16 10 17 0 44 23 44 37 0 15 -25 63 -32
63 -5 0 -8 9 -8 19 0 11 -3 21 -7 23 -7 3 -37 55 -67 115 -6 13 -14 23 -18 23
-5 0 -8 9 -8 20 0 11 -4 20 -10 20 -5 0 -10 9 -10 19 0 11 -3 21 -7 23 -10 4
-42 57 -50 81 -3 9 -9 17 -14 17 -5 0 -9 9 -9 20 0 11 -4 20 -10 20 -5 0 -10
9 -10 19 0 11 -3 21 -7 23 -7 3 -37 55 -67 115 -6 13 -14 23 -18 23 -5 0 -8 9
-8 20 0 26 -36 26 -70 0 -14 -11 -31 -20 -37 -20 -7 0 -13 -4 -13 -10 0 -5 -9
-10 -20 -10 -11 0 -20 -4 -20 -10 0 -5 -9 -10 -20 -10 -19 0 -20 7 -20 90 l0
90 -105 0 -105 0 2 -442z m146 285 c3 -21 0 -23 -47 -23 -44 0 -51 3 -51 19 0
24 15 30 60 28 28 -2 36 -7 38 -24z m0 -100 c3 -21 0 -23 -47 -23 -44 0 -51 3
-51 19 0 24 15 30 60 28 28 -2 36 -7 38 -24z m280 -11 c3 -17 -2 -25 -17 -29
-12 -3 -21 -9 -21 -14 0 -15 -50 -10 -56 6 -7 17 18 45 40 45 9 0 16 5 16 11
0 21 35 3 38 -19z m-278 -82 c0 -29 -1 -30 -50 -30 -46 0 -50 2 -50 23 0 33 7
37 57 37 41 0 43 -1 43 -30z m320 1 c0 -23 -7 -32 -34 -45 -42 -20 -46 -20
-46 -1 0 8 -4 15 -10 15 -5 0 -10 5 -10 10 0 6 9 10 20 10 11 0 20 3 20 8 0 7
36 28 53 31 4 0 7 -12 7 -28z"/>
<path d="M3005 4650 c-3 -5 -15 -10 -26 -10 -10 0 -19 -4 -19 -10 0 -5 -9 -10
-19 -10 -11 0 -23 -4 -26 -10 -3 -5 -17 -10 -31 -10 -13 0 -24 -4 -24 -10 0
-5 -13 -10 -30 -10 -16 0 -30 -4 -30 -9 0 -5 -15 -11 -32 -14 -18 -4 -58 -11
-88 -17 -30 -6 -79 -14 -107 -17 -47 -4 -53 -7 -53 -28 0 -13 5 -27 10 -30 6
-3 10 -19 10 -36 0 -28 -1 -29 -50 -29 l-50 0 0 -60 0 -60 290 0 290 0 0 60 0
60 -210 0 c-133 0 -210 4 -210 10 0 6 24 10 54 10 30 0 58 5 61 10 3 6 24 10
46 10 21 0 39 5 39 10 0 6 13 10 29 10 17 0 33 5 36 10 3 6 17 10 30 10 13 0
27 5 30 10 3 6 17 10 31 10 13 0 24 5 24 10 0 6 9 10 19 10 11 0 23 5 26 10 3
6 14 10 23 10 9 0 25 7 34 14 16 12 16 16 -5 59 -16 34 -28 47 -44 47 -12 0
-25 -4 -28 -10z"/>
<path d="M3080 4340 l0 -60 40 0 40 0 0 60 0 60 -40 0 -40 0 0 -60z"/>
<path d="M2440 4140 l0 -60 288 2 287 3 3 58 3 57 -291 0 -290 0 0 -60z"/>
<path d="M3080 4140 l0 -60 40 0 40 0 0 60 0 60 -40 0 -40 0 0 -60z"/>
<path d="M2440 3955 l0 -55 290 0 290 0 0 55 0 55 -290 0 -290 0 0 -55z"/>
<path d="M3080 3955 l0 -55 40 0 40 0 0 55 0 55 -40 0 -40 0 0 -55z"/>
<path d="M2235 3783 c-27 -2 -54 -8 -59 -14 -6 -5 -20 -9 -33 -9 -13 0 -23 -4
-23 -10 0 -5 -6 -10 -13 -10 -8 0 -21 -8 -30 -18 -14 -15 -17 -42 -17 -155 0
-160 -2 -157 109 -157 l71 0 0 98 c0 100 12 148 40 155 36 9 40 -2 40 -129 l0
-124 94 0 c108 0 126 5 126 31 0 10 5 19 10 19 6 0 10 9 10 19 0 11 3 21 8 23
6 3 36 55 66 115 6 13 14 23 19 23 4 0 7 9 7 20 0 11 5 20 10 20 6 0 10 9 10
20 0 11 5 20 10 20 6 0 10 9 10 20 0 11 5 20 10 20 6 0 10 7 10 15 0 13 -30
15 -217 13 -120 -1 -240 -3 -268 -5z"/>
<path d="M3000 3779 c0 -6 9 -13 19 -16 11 -3 22 -11 24 -17 5 -14 -22 -79
-35 -84 -4 -2 -8 -12 -8 -23 0 -10 -4 -19 -10 -19 -5 0 -10 -9 -10 -20 0 -11
-4 -20 -10 -20 -5 0 -10 -9 -10 -19 0 -11 -3 -21 -7 -23 -7 -3 -37 -55 -67
-115 -6 -13 -14 -23 -18 -23 -5 0 -8 -9 -8 -20 0 -11 -5 -20 -11 -20 -5 0 -7
-4 -4 -10 4 -6 108 -10 281 -10 l274 0 0 -50 0 -50 -290 0 c-308 0 -313 -1
-272 -46 10 -10 21 -27 25 -36 4 -11 17 -18 35 -18 29 0 82 -44 82 -68 0 -7 5
-12 10 -12 14 0 12 -43 -4 -74 -7 -14 -75 -87 -150 -161 -75 -74 -136 -142
-136 -150 0 -8 -3 -15 -7 -15 -11 0 -33 -50 -33 -75 0 -12 5 -26 12 -33 9 -9
187 -12 740 -12 l728 0 0 45 c0 25 -6 55 -12 67 -27 45 -100 123 -241 256 -66
61 -67 63 -67 113 0 45 4 55 34 85 20 20 44 34 58 34 17 0 29 9 38 28 16 31
124 141 159 161 14 7 59 16 101 20 74 6 79 8 118 49 22 23 48 42 56 42 9 0 16
5 16 10 0 6 9 10 20 10 11 0 20 5 20 10 0 6 9 10 20 10 11 0 20 5 20 10 0 6
14 10 30 10 17 0 30 5 30 10 0 6 16 10 35 10 19 0 44 6 55 13 17 10 22 9 30
-3 19 -30 10 -57 -35 -96 l-45 -39 0 -140 c0 -153 8 -185 50 -207 36 -18 40
-27 40 -84 0 -52 -13 -73 -52 -87 -10 -4 -18 -13 -18 -22 0 -8 -4 -15 -10 -15
-6 0 -10 -56 -10 -149 l0 -149 31 -31 c27 -28 37 -31 92 -31 51 0 67 4 90 24
l27 23 0 159 c-1 169 -3 178 -52 203 -26 14 -28 18 -28 83 0 55 3 68 15 68 9
0 27 11 40 25 24 24 25 27 25 182 -1 159 -8 193 -39 193 -26 0 -42 30 -39 72
l3 43 45 3 c25 2 49 7 54 13 6 5 20 9 33 9 13 0 23 5 23 10 0 6 7 10 16 10 9
0 25 10 36 22 15 18 18 35 16 92 l-3 71 -982 3 c-709 1 -983 -1 -983 -9z
m1668 -419 c7 -12 23 -20 38 -20 17 0 28 7 31 20 7 25 12 25 29 3 16 -22 20
-223 4 -223 -5 0 -10 -7 -10 -15 0 -24 -18 -17 -22 8 -4 32 -46 36 -69 6 -10
-13 -21 -20 -26 -16 -19 20 -14 257 5 257 4 0 13 -9 20 -20z m-753 -70 l0 -45
-154 -3 c-164 -3 -181 1 -181 45 0 49 13 53 180 50 l155 -2 0 -45z m-197 -150
c26 -25 28 -57 5 -82 -15 -17 -38 -18 -319 -18 -299 0 -304 0 -324 22 -26 28
-25 46 2 75 l21 23 297 0 c284 0 297 -1 318 -20z m20 -196 c17 -5 22 -14 22
-41 0 -64 6 -63 -360 -63 -367 0 -360 -1 -360 64 0 28 4 35 23 39 35 7 649 7
675 1z m934 -144 c7 -11 23 -20 36 -20 15 0 26 7 29 20 6 24 10 25 29 6 10
-11 14 -41 14 -113 0 -89 -2 -101 -24 -125 -27 -32 -78 -38 -103 -12 -29 28
-30 264 -2 264 5 0 14 -9 21 -20z m-746 -77 c20 -26 17 -53 -8 -74 -20 -18
-47 -19 -518 -19 -471 0 -498 1 -518 19 -26 22 -27 39 -6 69 l15 22 511 0
c475 0 512 -1 524 -17z"/>
<path d="M2814 3748 c-26 -39 -45 -75 -50 -90 -4 -10 -10 -18 -15 -18 -5 0 -9
-9 -9 -20 0 -11 -4 -20 -10 -20 -5 0 -10 -9 -10 -20 0 -11 -4 -20 -10 -20 -5
0 -10 -9 -10 -20 0 -11 -4 -20 -10 -20 -5 0 -10 -9 -10 -19 0 -11 -3 -21 -7
-23 -8 -3 -46 -69 -68 -115 -5 -13 -13 -23 -17 -23 -5 0 -8 -9 -8 -20 0 -11
-4 -20 -10 -20 -5 0 -10 -9 -10 -20 0 -11 -4 -20 -10 -20 -5 0 -10 -9 -10 -19
0 -11 -3 -21 -7 -23 -7 -3 -37 -55 -67 -115 -6 -13 -14 -23 -18 -23 -5 0 -8
-9 -8 -20 0 -11 -4 -20 -10 -20 -5 0 -10 -9 -10 -20 0 -11 -4 -20 -10 -20 -5
0 -10 -9 -10 -20 0 -11 -4 -20 -10 -20 -5 0 -10 -9 -10 -20 0 -11 -3 -20 -7
-20 -5 0 -13 -10 -18 -23 -22 -46 -60 -112 -67 -115 -5 -2 -8 -12 -8 -23 0
-10 -4 -19 -10 -19 -5 0 -10 -9 -10 -20 0 -11 -4 -20 -10 -20 -5 0 -10 -9 -10
-19 0 -11 -3 -21 -7 -23 -5 -1 -19 -24 -32 -51 -35 -68 -41 -71 -92 -45 -24
13 -45 26 -47 31 -2 4 -12 7 -23 7 -10 0 -19 5 -19 10 0 6 -9 10 -20 10 -11 0
-20 5 -20 10 0 6 -9 10 -19 10 -11 0 -21 6 -23 12 -6 17 -38 -14 -38 -36 0 -9
-3 -16 -7 -16 -10 0 -33 -49 -33 -69 0 -9 13 -29 28 -46 16 -16 35 -51 42 -77
8 -26 21 -49 29 -52 22 -7 75 -40 79 -48 2 -5 12 -8 23 -8 10 0 19 -4 19 -10
0 -5 9 -10 20 -10 11 0 20 -4 20 -10 0 -5 9 -10 20 -10 11 0 20 -3 20 -7 0 -5
10 -13 23 -19 60 -30 112 -60 115 -66 2 -5 12 -8 22 -8 10 0 20 -6 22 -12 6
-17 38 14 38 35 0 9 3 17 8 19 9 4 41 57 49 81 3 9 9 17 14 17 5 0 9 9 9 19 0
10 6 21 14 24 11 4 14 -30 18 -194 4 -182 6 -200 24 -214 16 -12 141 -14 894
-14 681 0 878 2 890 12 36 30 40 54 40 248 0 188 -4 214 -36 246 -18 19 -1769
19 -1788 0 -7 -7 -16 -24 -19 -40 l-7 -27 -83 43 c-45 23 -83 45 -85 50 -2 4
-12 7 -23 7 -10 0 -19 6 -19 14 0 17 42 100 53 104 4 2 7 12 7 23 0 10 5 19
10 19 6 0 10 9 10 19 0 11 3 21 8 23 4 2 17 22 30 46 12 23 32 61 45 85 12 23
25 44 30 45 4 2 7 12 7 23 0 10 5 19 10 19 6 0 10 9 10 20 0 11 5 20 10 20 6
0 10 9 10 19 0 11 3 21 8 23 7 3 45 69 67 115 5 13 13 23 18 23 4 0 7 9 7 20
0 11 5 20 10 20 6 0 10 9 10 20 0 11 5 20 10 20 6 0 10 9 10 20 0 11 3 20 8
20 4 0 12 10 17 23 22 46 60 112 68 115 4 2 7 12 7 23 0 10 5 19 10 19 6 0 10
9 10 20 0 11 5 20 10 20 6 0 10 9 10 19 0 11 3 21 8 23 6 3 36 55 66 115 6 13
14 23 19 23 4 0 7 9 7 20 0 11 5 20 10 20 6 0 10 14 10 30 0 23 -4 30 -20 30
-11 0 -20 4 -20 9 0 5 -8 11 -17 15 -10 3 -23 8 -30 12 -6 3 -15 -1 -19 -8z
m1452 -1362 c11 -12 14 -54 14 -209 l0 -194 -31 -7 c-53 -10 -1655 -7 -1683 4
l-26 10 0 190 c0 138 3 195 13 205 18 21 1691 22 1713 1z"/>
<path d="M2685 2303 c-36 -4 -54 -16 -55 -35 0 -5 20 -8 45 -8 l45 0 0 -100 0
-100 40 0 40 0 0 119 c0 143 6 136 -115 124z"/>
<path d="M2933 2303 c-17 -6 -17 -100 -1 -105 9 -3 8 -9 -5 -22 -9 -10 -17
-32 -17 -51 0 -67 -5 -65 181 -65 l169 0 0 59 c0 38 -5 61 -12 65 -10 5 -10 7
0 12 19 9 16 100 -4 108 -19 7 -293 7 -311 -1z m250 -43 c3 -11 3 -29 0 -40
-5 -18 -14 -20 -90 -20 -83 0 -113 10 -113 40 0 30 26 39 111 40 78 0 87 -2
92 -20z m11 -122 c8 -13 7 -21 -2 -30 -14 -14 -127 -23 -177 -14 -31 6 -35 11
-35 37 l0 30 101 -3 c84 -2 104 -6 113 -20z"/>
<path d="M3393 2303 c-9 -3 -13 -28 -13 -74 l0 -69 126 0 c129 0 154 -7 154
-44 0 -23 -56 -29 -175 -21 -102 7 -105 6 -105 -14 0 -20 4 -21 169 -21 145 0
170 2 175 16 10 26 7 194 -4 215 -10 18 -22 19 -163 18 -84 0 -158 -3 -164 -6z
m254 -38 c10 -10 13 -24 9 -40 -6 -24 -9 -25 -99 -25 -92 0 -117 8 -117 37 0
33 24 42 108 43 62 0 87 -4 99 -15z"/>
<path d="M3853 2303 c-10 -3 -13 -38 -13 -124 l0 -119 168 0 c117 0 172 4 180
12 7 7 12 33 12 59 0 69 -18 79 -146 79 -123 0 -134 3 -134 42 l0 29 93 -5
c50 -2 113 -8 140 -11 37 -6 47 -4 47 7 0 33 -22 38 -180 37 -85 0 -161 -3
-167 -6z m245 -139 c16 -5 22 -14 22 -34 0 -35 -13 -40 -105 -40 -71 0 -105
13 -105 40 0 5 7 16 16 24 16 16 124 22 172 10z"/>
<path d="M803 5143 c-4 -10 -15 -27 -25 -37 -10 -11 -18 -26 -18 -33 0 -7 -4
-13 -10 -13 -5 0 -10 -13 -10 -30 0 -16 5 -30 10 -30 6 0 10 5 10 10 0 6 7 10
15 10 9 0 19 8 22 18 13 33 32 45 49 31 11 -9 13 -23 9 -51 -5 -30 -4 -38 9
-38 8 0 18 5 21 10 8 13 42 13 51 -1 3 -6 1 -16 -5 -22 -16 -16 -14 -67 3 -67
26 0 46 47 46 110 0 56 -3 63 -33 93 -45 43 -71 57 -107 57 -20 0 -33 -6 -37
-17z"/>
<path d="M5620 5096 c0 -17 12 -34 38 -53 20 -15 39 -31 40 -35 2 -5 9 -8 16
-8 18 0 66 -49 66 -66 0 -9 -11 -14 -30 -14 -16 0 -30 5 -30 10 0 6 -7 10 -16
10 -9 0 -28 12 -43 28 -33 34 -65 52 -91 52 -22 0 -39 -28 -23 -39 5 -3 12
-13 15 -21 3 -9 36 -31 72 -49 50 -26 66 -39 66 -56 0 -30 -23 -75 -38 -75
-15 0 -49 19 -76 43 -11 9 -26 17 -33 17 -7 0 -13 5 -13 10 0 6 -9 10 -20 10
-11 0 -20 5 -20 10 0 6 -7 10 -15 10 -8 0 -23 4 -33 9 -29 15 -87 31 -110 31
-17 0 -22 -6 -22 -27 0 -24 8 -31 53 -51 28 -13 60 -28 69 -33 10 -5 27 -9 38
-9 11 0 20 -4 20 -10 0 -5 7 -10 15 -10 8 0 23 -4 33 -9 9 -5 33 -16 52 -25
49 -21 80 -50 80 -74 0 -11 5 -24 10 -27 6 -3 10 -46 10 -95 0 -49 -4 -92 -10
-95 -5 -3 -10 -21 -10 -40 0 -19 -4 -37 -10 -40 -5 -3 -10 -17 -10 -30 0 -13
-4 -27 -10 -30 -26 -16 0 -75 32 -75 23 0 55 44 62 86 4 22 11 89 15 149 10
126 18 165 36 165 15 0 45 -32 45 -48 0 -7 5 -12 10 -12 6 0 10 -32 10 -75 0
-70 2 -76 25 -87 19 -8 28 -8 41 3 16 13 16 21 -3 151 -5 39 12 68 40 68 11 0
16 -19 21 -72 3 -40 9 -93 12 -117 9 -65 38 -88 70 -57 15 16 19 46 5 46 -4 0
-12 26 -16 58 -4 31 -11 89 -17 127 -5 39 -11 102 -14 142 -5 65 -4 73 15 85
25 15 28 63 6 72 -9 3 -35 3 -59 0 -36 -5 -50 -2 -74 15 -17 11 -35 21 -41 21
-6 0 -11 5 -11 10 0 6 -6 10 -12 10 -7 0 -29 14 -48 30 -19 16 -38 30 -43 30
-4 0 -21 14 -39 30 -17 17 -37 30 -44 30 -8 0 -14 5 -14 10 0 6 -9 10 -20 10
-15 0 -20 -7 -20 -24z m280 -226 c0 -5 7 -10 16 -10 48 0 62 -93 20 -135 -44
-43 -88 -63 -113 -50 -57 29 -79 73 -66 135 4 25 10 30 34 30 22 0 29 5 29 20
0 17 7 20 40 20 22 0 40 -4 40 -10z"/>
<path d="M1190 5050 c-8 -5 -27 -10 -42 -10 -16 0 -28 -4 -28 -10 0 -5 -7 -10
-16 -10 -16 0 -104 -86 -104 -102 0 -14 -48 -58 -64 -58 -8 0 -16 5 -18 11 -3
9 -10 9 -28 -1 -21 -11 -26 -9 -50 19 -21 24 -36 31 -64 31 -33 0 -36 2 -36
30 0 33 -7 37 -34 17 -13 -9 -19 -30 -22 -72 -1 -32 -8 -63 -14 -69 -17 -17
-11 -26 18 -26 32 0 52 -16 52 -42 0 -15 8 -18 49 -18 45 0 50 -2 61 -31 9
-21 10 -36 3 -52 -20 -44 -53 -155 -53 -180 0 -22 35 -103 51 -117 3 -3 8 -12
11 -20 3 -8 25 -25 48 -38 34 -18 45 -20 51 -10 11 18 -1 60 -23 79 -10 9 -18
24 -18 33 0 9 -3 16 -8 16 -16 0 -34 62 -28 103 13 102 19 127 27 133 5 3 9
16 9 29 0 13 5 27 10 30 6 3 10 15 10 26 0 10 5 19 10 19 6 0 10 9 10 20 0 11
3 20 8 20 4 0 18 17 31 38 12 20 44 53 69 72 26 19 56 43 66 53 20 17 40 20
134 17 l52 -1 0 40 0 41 -57 0 c-32 0 -65 -5 -73 -10z m-277 -243 c7 -17 -16
-47 -37 -47 -9 0 -16 8 -16 18 0 34 42 57 53 29z"/>
<path d="M1197 4883 c-4 -3 -7 -29 -8 -57 -1 -68 -11 -100 -32 -104 -14 -3
-17 5 -17 47 0 42 -4 53 -24 66 -33 22 -72 10 -88 -26 -7 -16 -16 -29 -20 -29
-5 0 -8 -9 -8 -20 0 -11 -4 -20 -10 -20 -5 0 -10 -11 -10 -24 0 -14 -4 -28
-10 -31 -5 -3 -10 -31 -10 -61 0 -43 4 -56 18 -61 9 -4 20 -11 23 -16 8 -12
-1 -47 -12 -47 -17 0 -9 -39 10 -45 28 -8 52 4 92 46 45 48 77 51 86 9 6 -32
26 -39 49 -16 16 17 19 102 4 111 -12 7 -14 95 -2 95 4 0 18 34 31 76 l25 77
-23 18 c-23 19 -52 25 -64 12z m-118 -145 c-1 -62 -59 -126 -75 -84 -11 28 41
116 67 116 5 0 9 -15 8 -32z m29 -120 c3 -16 -23 -48 -39 -48 -5 0 -9 10 -9
23 0 41 41 62 48 25z"/>
<path d="M580 4706 c0 -19 -4 -38 -10 -41 -5 -3 -10 -23 -10 -44 0 -36 3 -40
45 -60 25 -12 64 -21 88 -21 50 0 73 21 96 84 11 33 11 40 -1 52 -17 17 -48 8
-48 -13 0 -14 -23 -43 -34 -43 -3 0 -6 23 -6 50 0 41 -3 50 -18 50 -18 0 -42
-48 -42 -83 0 -10 -8 -17 -20 -17 -15 0 -20 7 -20 29 0 17 5 33 10 36 6 3 10
17 10 31 0 17 -5 24 -20 24 -16 0 -20 -7 -20 -34z"/>
<path d="M645 3287 c-27 -17 -65 -59 -65 -74 0 -7 -4 -13 -10 -13 -5 0 -10 -7
-10 -16 0 -16 -47 -64 -63 -64 -24 0 -60 65 -49 88 5 9 12 29 16 45 6 24 4 27
-19 27 -24 0 -25 -2 -25 -64 0 -95 40 -156 101 -156 36 0 79 40 106 99 22 46
34 58 66 66 46 12 90 -68 56 -102 -13 -13 -4 -33 17 -33 19 0 19 111 0 148
-30 57 -77 76 -121 49z"/>
<path d="M5951 3278 c-10 -27 -6 -38 15 -38 8 0 14 -4 14 -10 0 -5 6 -10 13
-10 18 0 67 -24 67 -32 0 -5 9 -8 20 -8 46 0 11 -31 -60 -53 -30 -10 -60 -21
-66 -25 -14 -9 -34 -90 -34 -136 0 -19 -4 -38 -10 -41 -5 -3 -10 -26 -10 -50
0 -24 -4 -47 -10 -50 -12 -7 -14 -105 -2 -105 5 0 14 23 21 51 l13 51 42 -6
c113 -15 132 -19 141 -27 5 -5 24 -9 41 -9 18 0 36 -4 39 -10 3 -5 17 -10 31
-10 19 0 24 5 24 24 0 13 2 31 5 38 5 11 -11 18 -67 27 -40 7 -87 16 -104 22
-17 5 -42 9 -57 9 -47 0 -77 20 -77 52 0 15 5 28 11 28 7 0 9 11 6 30 -5 22
-3 30 8 30 8 0 15 5 15 10 0 6 9 10 20 10 11 0 20 5 20 10 0 6 7 10 15 10 8 0
24 5 35 10 11 6 29 15 40 20 26 13 116 13 142 -1 25 -13 28 -10 35 39 l5 39
-79 5 c-64 4 -85 9 -103 26 -13 12 -30 22 -37 22 -7 0 -13 4 -13 8 0 5 -12 15
-27 23 -16 8 -35 22 -44 31 -21 23 -28 23 -38 -4z"/>
<path d="M737 3014 c-4 -4 -31 -12 -60 -16 -65 -11 -150 -25 -200 -34 -30 -5
-37 -10 -31 -23 3 -9 9 -26 11 -38 5 -23 36 -32 47 -14 3 5 23 11 43 13 21 3
46 8 56 12 14 7 17 3 17 -17 0 -14 5 -29 10 -32 6 -3 10 -24 10 -46 0 -39 0
-39 -40 -39 -51 0 -120 -21 -120 -37 0 -29 24 -64 39 -57 9 4 30 9 46 11 17 2
39 8 50 13 19 8 50 13 173 26 46 5 52 8 52 29 0 42 -10 55 -45 55 -19 0 -37
-4 -40 -10 -9 -14 -68 -13 -83 2 -7 7 -12 32 -12 58 0 39 4 47 27 58 15 6 47
12 71 12 l43 0 -3 38 c-3 31 -7 37 -28 40 -14 2 -29 0 -33 -4z"/>
<path d="M5853 2673 c-28 -59 -21 -64 135 -90 17 -3 32 -9 32 -14 0 -5 13 -9
29 -9 17 0 33 -4 36 -10 3 -5 17 -10 31 -10 13 0 24 -4 24 -10 0 -5 9 -10 20
-10 15 0 20 7 20 24 0 14 5 28 10 31 25 16 17 19 -125 57 -22 5 -48 14 -57 19
-10 5 -29 9 -42 9 -14 0 -28 5 -31 10 -3 6 -17 10 -31 10 -13 0 -24 5 -24 10
0 19 -15 10 -27 -17z"/>
<path d="M520 2583 c0 -34 25 -46 79 -40 58 7 76 -4 85 -53 7 -40 -6 -56 -63
-81 -30 -13 -32 -17 -26 -49 4 -19 9 -38 11 -41 8 -13 43 3 74 32 16 16 33 29
37 29 5 0 24 14 43 30 19 16 39 30 43 30 4 0 17 9 29 20 12 11 28 20 35 20 7
0 13 5 13 10 0 6 7 10 16 10 13 0 15 7 10 31 -3 17 -6 35 -6 39 0 4 -66 10
-147 13 -82 4 -167 10 -190 13 -39 6 -43 5 -43 -13z m300 -30 c0 -11 -73 -73
-85 -73 -19 0 -35 23 -35 52 0 28 1 28 60 28 33 0 60 -3 60 -7z"/>
<path d="M5800 2522 c0 -10 -5 -23 -12 -30 -6 -6 -12 -40 -12 -75 -1 -82 12
-97 88 -97 31 0 56 3 56 8 0 4 18 18 40 32 22 14 40 28 40 33 0 4 17 7 38 5
36 -3 37 -4 40 -46 3 -37 -1 -47 -27 -71 -38 -36 -39 -41 -1 -41 23 0 30 4 30
20 0 11 5 20 10 20 6 0 10 9 10 19 0 11 5 23 10 26 29 18 -2 135 -36 135 -8 0
-14 5 -14 10 0 6 -13 10 -30 10 -16 0 -30 -4 -30 -10 0 -5 -6 -10 -14 -10 -7
0 -27 -13 -44 -30 -18 -16 -39 -30 -47 -30 -8 0 -15 -4 -15 -10 0 -15 -33 -12
-58 6 -34 23 -25 72 21 115 24 23 21 29 -13 29 -22 0 -30 -5 -30 -18z"/>
<path d="M926 2355 c-8 -8 -22 -15 -30 -15 -9 0 -16 -4 -16 -10 0 -5 -9 -10
-20 -10 -11 0 -20 -4 -20 -10 0 -5 -7 -10 -15 -10 -8 0 -30 -9 -50 -20 -20
-11 -44 -20 -55 -20 -11 0 -20 -4 -20 -10 0 -5 -11 -10 -23 -10 -32 0 -37 -7
-23 -35 10 -23 40 -34 48 -17 4 9 57 41 81 49 9 3 17 9 17 14 0 5 8 9 18 9 10
0 22 4 28 9 5 5 19 12 32 16 28 8 30 -15 2 -35 -11 -8 -20 -19 -20 -25 0 -5
-14 -26 -30 -45 -16 -19 -30 -39 -30 -43 0 -4 -9 -17 -20 -29 -11 -12 -20 -28
-20 -35 0 -7 -4 -13 -10 -13 -16 0 -11 -50 7 -68 12 -12 18 -13 21 -4 2 6 12
12 23 12 10 0 19 5 19 10 0 6 9 10 20 10 11 0 20 5 20 10 0 6 9 10 20 10 11 0
20 5 20 10 0 6 9 10 20 10 11 0 20 4 20 8 0 5 23 15 50 22 28 7 50 17 50 22 0
4 9 8 20 8 24 0 25 17 4 45 -9 12 -18 16 -22 10 -8 -11 -29 -23 -111 -67 -29
-15 -57 -28 -62 -28 -16 0 -10 25 11 48 11 12 20 25 20 29 0 4 14 24 30 43 16
19 30 40 30 45 0 6 9 17 20 25 21 15 28 50 10 50 -5 0 -10 9 -10 19 0 10 -7
22 -16 25 -21 8 -20 8 -38 -9z"/>
<path d="M5696 2248 c-15 -18 -35 -50 -44 -70 -9 -21 -20 -38 -24 -38 -5 0 -8
-9 -8 -19 0 -11 -6 -22 -12 -24 -17 -7 7 -25 45 -34 15 -3 27 -9 27 -14 0 -5
9 -9 19 -9 11 0 21 -3 23 -7 2 -5 21 -18 43 -29 22 -12 60 -32 85 -45 25 -13
48 -28 52 -34 8 -11 37 22 38 43 0 6 5 12 10 12 6 0 10 5 10 10 0 6 -9 10 -20
10 -11 0 -20 5 -20 10 0 6 -9 10 -20 10 -11 0 -20 5 -20 10 0 6 -7 10 -16 10
-18 0 -44 23 -44 40 0 25 30 42 63 35 18 -3 56 -9 85 -12 48 -4 52 -3 52 16 0
12 5 21 10 21 6 0 10 6 10 14 0 17 -44 26 -131 26 -55 0 -69 3 -69 15 0 8 -6
25 -12 37 -33 59 -91 65 -132 16z m91 -64 c18 -18 16 -72 -4 -92 -12 -12 -18
-13 -21 -4 -2 6 -12 12 -23 12 -10 0 -19 5 -19 10 0 6 -9 10 -19 10 -10 0 -21
7 -25 15 -8 22 10 63 31 68 25 6 65 -4 80 -19z"/>
<path d="M981 1998 c-46 -26 -101 -82 -101 -102 0 -9 -4 -16 -10 -16 -5 0 -10
-13 -10 -29 0 -17 5 -33 10 -36 6 -3 10 -14 10 -24 0 -9 9 -27 20 -39 11 -12
20 -25 20 -30 0 -12 58 -72 69 -72 5 0 16 6 23 13 7 6 24 18 38 25 46 24 61
39 54 56 -3 9 -10 16 -15 16 -5 0 -9 7 -9 15 0 22 -16 18 -44 -10 -14 -14 -32
-25 -40 -25 -8 0 -16 -6 -19 -12 -3 -9 -14 -4 -31 14 -20 20 -26 37 -26 69 0
35 6 47 37 75 20 19 43 34 50 34 7 0 13 5 13 10 0 6 9 10 20 10 11 0 20 5 20
10 0 6 20 10 44 10 33 0 49 -6 70 -26 14 -15 26 -35 26 -45 0 -10 5 -21 10
-24 6 -3 10 -15 10 -26 0 -12 7 -19 20 -19 11 0 20 6 20 13 0 18 -24 67 -32
67 -5 0 -8 6 -8 13 0 16 -57 77 -88 95 -33 18 -112 14 -151 -10z"/>
<path d="M5555 2007 c-5 -7 -16 -24 -24 -39 -8 -16 -18 -28 -23 -28 -4 0 -8
-6 -8 -12 0 -7 -11 -26 -25 -42 -29 -33 -31 -46 -10 -46 8 0 15 -4 15 -10 0
-5 9 -10 20 -10 11 0 20 -4 20 -8 0 -5 12 -15 28 -23 15 -8 36 -22 46 -31 11
-10 24 -18 29 -18 5 0 17 -8 26 -18 9 -9 28 -23 44 -31 15 -8 27 -18 27 -23 0
-4 9 -8 20 -8 13 0 20 7 20 18 0 10 9 24 20 32 11 8 20 21 20 29 0 7 8 21 18
30 29 27 47 70 35 82 -15 15 -33 3 -33 -20 0 -24 -71 -100 -77 -83 -3 6 -11
12 -19 12 -19 0 -64 45 -64 63 0 8 9 22 20 32 25 22 26 45 2 45 -9 0 -23 -13
-30 -30 -10 -21 -21 -30 -38 -30 -28 0 -104 67 -89 78 13 9 75 89 75 96 0 11
-35 5 -45 -7z"/>
<path d="M5396 1784 c-3 -9 -6 -17 -6 -19 0 -1 16 -20 35 -41 19 -21 35 -42
35 -46 0 -5 9 -18 20 -30 11 -12 20 -28 20 -35 0 -7 4 -13 9 -13 5 0 11 -9 14
-20 4 -16 0 -20 -19 -20 -13 0 -24 5 -24 10 0 6 -7 10 -15 10 -9 0 -35 9 -57
20 -23 11 -48 20 -55 20 -7 0 -13 3 -13 8 0 7 -52 35 -55 29 -1 -1 -11 -16
-23 -34 -27 -38 -27 -43 -3 -43 11 0 23 -4 26 -10 3 -5 17 -10 31 -10 13 0 24
-4 24 -10 0 -5 9 -10 19 -10 11 0 23 -4 26 -10 3 -5 17 -10 31 -10 13 0 24 -4
24 -10 0 -5 7 -10 15 -10 8 0 25 -5 38 -12 48 -25 58 -28 81 -28 13 0 26 6 29
13 7 18 -3 67 -14 67 -5 0 -9 6 -9 13 0 7 -9 23 -20 35 -11 12 -20 28 -20 37
0 8 -4 15 -10 15 -5 0 -10 6 -10 13 0 7 -9 23 -20 35 -11 12 -20 28 -20 37 0
8 -3 15 -8 15 -4 0 -13 14 -20 30 -15 32 -46 40 -56 14z"/>
<path d="M1270 1742 c-19 -21 -55 -53 -80 -72 -25 -19 -57 -47 -71 -62 -15
-16 -30 -28 -35 -28 -4 0 -15 -7 -25 -16 -17 -15 -17 -17 6 -40 13 -13 29 -24
35 -24 5 0 31 20 58 45 26 25 51 45 55 45 4 0 26 -18 47 -39 26 -26 38 -45 34
-55 -3 -9 -9 -16 -13 -16 -4 0 -29 -20 -55 -44 l-49 -44 27 -27 26 -26 62 53
c35 29 74 64 88 78 14 14 41 37 60 50 62 43 64 47 36 75 -14 14 -30 25 -36 25
-7 0 -29 -18 -50 -40 -21 -22 -48 -40 -59 -40 -20 0 -71 56 -71 79 0 15 65 81
80 81 23 0 21 30 -4 55 -14 14 -26 25 -28 24 -2 0 -19 -17 -38 -37z"/>
<path d="M5162 1527 c-29 -30 -28 -39 6 -59 27 -16 68 -58 159 -161 22 -26 48
-47 55 -47 8 0 24 11 37 24 l22 23 -122 122 c-66 66 -124 121 -128 121 -4 0
-17 -10 -29 -23z"/>
<path d="M1592 1439 c-12 -10 -28 -19 -37 -19 -8 0 -15 -4 -15 -10 0 -5 -6
-10 -13 -10 -7 0 -23 -9 -35 -20 -12 -11 -28 -20 -37 -20 -8 0 -15 -4 -15 -10
0 -5 -9 -10 -20 -10 -11 0 -20 -4 -20 -10 0 -5 -9 -10 -20 -10 -11 0 -20 -4
-20 -10 0 -5 -7 -10 -16 -10 -8 0 -22 -7 -30 -15 -14 -13 -14 -17 0 -30 8 -8
20 -15 26 -15 13 0 73 40 78 52 7 15 35 8 69 -18 31 -24 44 -54 23 -54 -5 0
-10 -9 -10 -20 0 -11 -4 -20 -10 -20 -5 0 -10 -9 -10 -19 0 -11 -5 -21 -12
-23 -16 -6 35 -58 57 -58 8 0 15 9 15 20 0 11 5 20 10 20 6 0 10 11 10 24 0
14 5 28 10 31 6 3 10 15 10 26 0 10 5 19 10 19 6 0 10 9 10 20 0 11 5 20 10
20 6 0 10 9 10 20 0 11 5 20 10 20 6 0 10 7 10 15 0 8 9 30 20 50 11 20 20 39
20 43 0 4 -15 17 -34 29 -33 21 -34 21 -54 2z m-12 -79 c0 -11 -4 -20 -10 -20
-5 0 -10 -7 -10 -16 0 -16 -23 -44 -36 -44 -13 0 -44 32 -44 46 0 7 14 18 30
26 17 7 30 16 30 20 0 5 9 8 20 8 13 0 20 -7 20 -20z"/>
<path d="M5052 1425 c-11 -12 -5 -22 32 -59 24 -25 52 -58 62 -75 10 -17 22
-31 26 -31 4 0 8 -4 8 -10 0 -5 -9 -10 -19 -10 -11 0 -23 5 -26 10 -3 6 -17
10 -31 10 -13 0 -24 5 -24 10 0 6 -7 10 -15 10 -9 0 -35 9 -57 20 -23 11 -50
20 -60 20 -22 0 -68 -28 -68 -42 0 -10 51 -78 87 -115 12 -12 30 -36 39 -53
10 -16 22 -30 26 -30 4 0 8 -6 8 -12 0 -7 11 -26 25 -42 22 -25 26 -27 40 -13
22 23 19 35 -23 75 -21 20 -49 53 -62 72 -13 19 -30 41 -37 48 -7 7 -13 18
-13 23 0 12 17 12 25 -1 3 -5 15 -10 26 -10 10 0 19 -4 19 -10 0 -5 11 -10 24
-10 14 0 28 -4 31 -10 3 -5 15 -10 26 -10 10 0 19 -4 19 -10 0 -5 10 -10 23
-10 13 0 28 -5 34 -11 16 -16 70 -14 88 5 16 16 16 18 -2 34 -10 9 -30 33 -43
52 -14 19 -37 48 -52 64 -16 16 -28 33 -28 39 0 5 -8 17 -18 26 -9 9 -23 28
-31 44 -16 30 -39 34 -59 12z"/>
<path d="M1780 1280 c0 -11 -4 -20 -8 -20 -5 0 -15 -12 -23 -27 -8 -16 -22
-37 -31 -47 -10 -11 -18 -24 -18 -29 0 -5 -8 -17 -18 -26 -10 -9 -29 -32 -42
-51 -13 -19 -29 -38 -35 -42 -12 -9 37 -58 60 -58 8 0 15 9 15 20 0 11 4 20 8
20 5 0 15 12 23 28 8 15 22 34 31 43 10 9 18 21 18 26 0 5 8 18 18 29 10 10
28 35 42 54 13 19 28 38 33 41 14 10 0 39 -18 39 -8 0 -15 5 -15 10 0 6 -9 10
-20 10 -13 0 -20 -7 -20 -20z"/>
<path d="M4800 1230 c0 -5 -7 -10 -15 -10 -8 0 -15 -6 -15 -14 0 -7 7 -19 15
-26 8 -7 15 -17 15 -22 0 -5 9 -18 20 -30 11 -12 20 -28 20 -35 0 -7 5 -13 10
-13 6 0 10 -9 10 -20 0 -11 3 -20 8 -20 12 0 35 -61 35 -93 0 -37 -36 -66 -81
-67 -33 0 -62 18 -62 40 0 6 -9 20 -20 32 -11 12 -20 28 -20 35 0 7 -4 13 -10
13 -5 0 -10 9 -10 20 0 11 -3 20 -8 20 -4 0 -15 18 -25 40 -13 31 -22 40 -42
40 -14 0 -25 -4 -25 -10 0 -5 -7 -10 -15 -10 -18 0 -19 -14 -2 -32 6 -7 18
-25 26 -40 8 -16 18 -28 23 -28 4 0 8 -9 8 -20 0 -11 4 -20 9 -20 5 0 11 -8
14 -17 7 -21 38 -73 52 -88 32 -31 57 -37 101 -24 24 8 44 17 44 21 0 4 6 8
13 8 19 0 67 45 67 64 0 9 5 16 10 16 17 0 11 33 -15 80 -14 25 -28 53 -31 63
-4 9 -10 17 -15 17 -5 0 -9 9 -9 20 0 11 -4 20 -10 20 -5 0 -10 9 -10 20 0 11
-4 20 -10 20 -5 0 -10 7 -10 16 0 15 -23 44 -34 44 -3 0 -6 -4 -6 -10z"/>
<path d="M2037 1083 c-31 -68 -59 -117 -69 -121 -5 -2 -8 -12 -8 -23 0 -10 -4
-19 -10 -19 -5 0 -10 -6 -10 -13 0 -7 -16 -30 -35 -51 -28 -31 -40 -37 -66
-34 -20 2 -34 -2 -36 -9 -3 -8 5 -13 21 -13 13 0 28 -4 31 -10 3 -5 21 -10 39
-10 38 0 106 54 106 83 0 9 5 17 10 17 6 0 10 9 10 20 0 11 4 20 9 20 5 0 11
8 14 18 8 23 40 76 50 80 4 2 7 11 7 19 0 9 10 24 22 34 21 19 21 20 2 34 -10
8 -25 15 -31 15 -7 0 -13 5 -13 10 0 26 -19 5 -43 -47z"/>
<path d="M2200 1030 c0 -16 -4 -30 -10 -30 -5 0 -10 -7 -10 -15 0 -8 -4 -23
-9 -33 -102 -200 -111 -232 -71 -232 10 0 20 -6 23 -12 6 -17 36 20 37 44 0 9
5 20 10 23 6 3 10 15 10 26 0 10 5 19 10 19 6 0 10 6 10 13 0 6 18 49 41 94
42 84 45 113 10 113 -11 0 -23 5 -26 10 -12 20 -25 9 -25 -20z"/>
<path d="M4340 990 c0 -5 -11 -10 -24 -10 -14 0 -28 -4 -31 -10 -3 -5 -15 -10
-26 -10 -10 0 -19 -4 -19 -8 0 -4 -13 -16 -30 -25 -16 -10 -30 -25 -30 -33 0
-8 -4 -14 -10 -14 -6 0 -10 -28 -10 -64 0 -36 5 -68 10 -71 6 -3 10 -15 10
-26 0 -10 5 -19 10 -19 6 0 10 -7 10 -15 0 -9 12 -27 26 -42 23 -23 33 -25 97
-25 41 1 73 6 75 11 2 6 9 11 16 11 18 0 74 29 82 42 7 10 -9 74 -29 116 -12
25 -33 28 -61 7 -17 -13 -17 -16 -2 -46 18 -37 21 -85 5 -94 -5 -4 -30 -7 -54
-7 -38 -1 -49 4 -70 28 -14 16 -25 36 -25 45 0 9 -3 19 -7 23 -10 10 -33 78
-33 99 0 37 39 87 69 87 11 0 23 5 26 10 3 6 19 10 36 10 16 0 29 -4 29 -10 0
-5 5 -10 10 -10 6 0 10 14 10 30 0 27 -3 30 -30 30 -16 0 -30 -4 -30 -10z"/>
<path d="M2429 933 c-7 -15 -21 -35 -29 -43 -9 -8 -27 -31 -40 -50 -13 -19
-50 -61 -82 -95 -61 -63 -71 -85 -38 -85 11 0 20 -4 20 -10 0 -17 17 -11 23 8
8 23 40 75 52 84 11 8 50 1 83 -15 20 -10 23 -16 17 -47 -14 -82 -12 -95 18
-98 15 -2 27 -8 27 -13 0 -6 5 -9 10 -7 6 2 12 48 14 103 2 55 7 139 11 186 8
85 8 86 -16 91 -13 3 -31 8 -40 12 -10 5 -20 -2 -30 -21z m11 -113 c0 -58 -1
-60 -26 -60 -14 0 -32 7 -41 15 -14 14 -13 17 3 33 11 9 25 29 33 45 22 42 31
33 31 -33z"/>
<path d="M4000 871 c0 -6 5 -13 10 -16 6 -3 10 -17 10 -30 0 -13 5 -27 10 -30
6 -3 10 -22 10 -41 0 -19 5 -34 10 -34 6 0 10 -13 10 -30 0 -16 -2 -30 -6 -30
-10 0 -123 120 -141 150 -15 27 -22 30 -66 30 l-49 0 5 -32 c3 -18 11 -53 17
-78 18 -73 31 -142 37 -197 3 -29 6 -53 8 -53 2 0 16 5 30 12 24 11 36 48 15
48 -5 0 -10 13 -10 29 0 17 -4 33 -10 36 -5 3 -10 21 -10 40 0 19 -4 37 -10
40 -12 7 -14 55 -2 55 4 0 51 -47 105 -104 90 -94 101 -103 125 -97 24 7 27
12 23 42 -1 19 -7 42 -12 51 -5 9 -9 30 -9 47 0 16 -4 33 -10 36 -5 3 -10 24
-10 46 0 22 -6 57 -12 79 -11 34 -17 40 -40 40 -16 0 -28 -4 -28 -9z"/>
<path d="M2685 847 c-31 -19 -65 -60 -65 -79 0 -9 -4 -20 -10 -23 -5 -3 -10
-40 -10 -82 0 -72 1 -76 33 -107 17 -17 48 -37 68 -44 39 -13 139 -17 139 -4
0 4 10 12 23 17 12 6 26 20 32 33 5 12 13 22 17 22 5 0 8 11 8 24 0 14 5 28
10 31 14 9 12 111 -2 137 -22 37 -51 62 -89 76 -44 15 -127 15 -154 -1z m161
-42 c17 -16 20 -160 4 -170 -5 -3 -10 -15 -10 -26 0 -36 -44 -72 -88 -72 -64
0 -77 21 -75 117 1 46 6 82 12 84 6 2 11 12 11 22 0 10 14 30 32 45 26 22 38
25 66 20 19 -4 41 -13 48 -20z"/>
<path d="M3550 802 c-57 -4 -93 -26 -117 -70 -16 -26 -18 -192 -3 -192 6 0 10
-7 10 -15 0 -9 12 -28 27 -43 26 -25 32 -27 115 -26 85 1 88 2 122 36 41 41
51 83 41 172 -11 110 -67 149 -195 138z m84 -45 c24 -25 34 -58 43 -146 3 -32
1 -57 -6 -64 -6 -6 -11 -17 -11 -25 0 -23 -32 -41 -70 -41 -39 0 -70 18 -70
42 0 8 -5 17 -11 19 -7 2 -12 37 -12 94 -1 83 1 93 23 117 33 34 82 36 114 4z"/>
<path d="M3116 784 c-5 -14 -1 -16 34 -10 31 5 45 2 57 -10 15 -15 16 -29 5
-138 -7 -66 -12 -136 -12 -153 0 -32 2 -33 40 -33 l40 0 0 160 c0 179 -7 164
78 160 36 -1 42 1 42 19 0 20 -5 21 -139 21 -119 0 -140 -2 -145 -16z"/>
</g>
</svg>
